/* XPM */
static const char *zero[] = {
/* columns rows colors chars-per-pixel */
"19 50 191 2 ",
"   c #3A2E0A",
".  c #3E310A",
"X  c #443403",
"o  c #493805",
"O  c #42350C",
"+  c #4C3C0D",
"@  c #473809",
"#  c #503F0F",
"$  c #443A14",
"%  c #4D3E10",
"&  c #55430C",
"*  c #5D4A0D",
"=  c #5B480B",
"-  c #4F4113",
";  c #534312",
":  c #584711",
">  c #5C4911",
",  c #52461C",
"<  c #594C1C",
"1  c #5F521D",
"2  c #624D0E",
"3  c #65500E",
"4  c #6C560F",
"5  c #6D590F",
"6  c #6F5607",
"7  c #735C0F",
"8  c #624E13",
"9  c #665213",
"0  c #6B5512",
"q  c #6E5914",
"w  c #63511D",
"e  c #725B12",
"r  c #745D19",
"t  c #7C630C",
"y  c #7C6413",
"u  c #75611D",
"i  c #7B631A",
"p  c #564B24",
"a  c #5F552E",
"s  c #685A26",
"d  c #796625",
"f  c #73642D",
"g  c #7C6A2C",
"h  c #7A6627",
"j  c #6A623B",
"k  c #746C41",
"l  c #81660D",
"z  c #8E720F",
"x  c #846617",
"c  c #846A12",
"v  c #8A6E13",
"b  c #80661A",
"n  c #866A19",
"m  c #886C1B",
"M  c #8D7114",
"N  c #8E711C",
"B  c #927515",
"V  c #967916",
"C  c #9C7D13",
"Z  c #92751B",
"A  c #977919",
"S  c #9B7C1B",
"D  c #A07F0F",
"F  c #A17F1C",
"G  c #836F2A",
"H  c #8B762C",
"J  c #9B7B21",
"K  c #947826",
"L  c #8E7C3A",
"P  c #887837",
"I  c #907B31",
"U  c #A07F23",
"Y  c #9F801D",
"T  c #A58313",
"R  c #A4821D",
"E  c #AA861E",
"W  c #A98916",
"Q  c #B08D15",
"!  c #B28E1B",
"~  c #B5921A",
"^  c #BB961B",
"/  c #BE991D",
"(  c #B79415",
")  c #9B812F",
"_  c #9B843A",
"`  c #A48322",
"'  c #A98624",
"]  c #AD8B24",
"[  c #A98A2E",
"{  c #B28C22",
"}  c #B59024",
"|  c #BC9524",
" . c #BC972A",
".. c #B79525",
"X. c #AC9239",
"o. c #BC9A34",
"O. c #B99A38",
"+. c #C39D1D",
"@. c #C59C18",
"#. c #CDA51D",
"$. c #D6AC1E",
"%. c #C29B2A",
"&. c #C19B20",
"*. c #C19F35",
"=. c #CCA322",
"-. c #C5A12A",
";. c #CBA52B",
":. c #C4A023",
">. c #D2AB24",
",. c #D2AA2C",
"<. c #D0A727",
"1. c #DBB328",
"2. c #CBA434",
"3. c #CBA73A",
"4. c #CEAA37",
"5. c #D5AD32",
"6. c #D8AD35",
"7. c #D3AC39",
"8. c #D1A733",
"9. c #DBB738",
"0. c #E2BC3B",
"q. c #E4BA36",
"w. c #E3B92B",
"e. c #EAC02C",
"r. c #E8C23B",
"t. c #9D8943",
"y. c #948342",
"u. c #8D8656",
"i. c #938B5A",
"p. c #A6944A",
"a. c #A89652",
"s. c #BBAA5C",
"d. c #9F9966",
"f. c #B5A969",
"g. c #D2AE41",
"h. c #DCB543",
"j. c #D9B94A",
"k. c #DFBB54",
"l. c #D5B650",
"z. c #E2BD42",
"x. c #E3BB4C",
"c. c #E2BD55",
"v. c #CCBB6C",
"b. c #D4BC63",
"n. c #C5BB79",
"m. c #DAC25E",
"M. c #EAC344",
"N. c #E9C54B",
"B. c #E7C249",
"V. c #E9C752",
"C. c #EDCA53",
"Z. c #E5C25B",
"A. c #EDCC5D",
"S. c #E7C855",
"D. c #DDCB70",
"F. c #EBCC6B",
"G. c #E8CA65",
"H. c #EFD164",
"J. c #EED36C",
"K. c #F3D366",
"L. c #F0D269",
"P. c #EDCD74",
"I. c #EBCE7C",
"U. c #EDD373",
"Y. c #EFD57B",
"T. c #F0D472",
"R. c #F1D57B",
"E. c #F3D97C",
"W. c #F0D875",
"Q. c #CDC584",
"!. c #EED284",
"~. c #EDD58F",
"^. c #F2DA83",
"/. c #F1D68A",
"(. c #F4DE8B",
"). c #EFD691",
"_. c #F1DA9A",
"`. c #F8E595",
"'. c #F1DDA4",
"]. c #F1DFAE",
"[. c #F4E4A4",
"{. c #F5E7AD",
"}. c #F3E3B4",
"|. c #F4E7BF",
" X c #F4E8B5",
".X c #F5E7C2",
"XX c #F5E9C3",
"oX c #F6EBCC",
"OX c #F8EFC9",
"+X c #F8F0C7",
"@X c None",
/* pixels */
"@X@X@X@X@X@X@XL.M.$.Y 7 @X@X@X@X@X@X@X",
"@X@X@X@X@X@XW.A.r.#.T 5 s i.@X@X@X@X@X",
"@X@X@X@X@XK.C.M.1.~ t = . - u.@X@X@X@X",
"@X@X@X@XC.r.w.1.( Y 7 & & . 1 @X@X@X@X",
"@X@X@XV.1.$.#.Q W M 5 = = = = P @X@X@X",
"@X@X@X9.@.Q W Q ( Q Y t 5 5 6 H @X@X@X",
"@X@Xm.^ T Y Q >.e.e.+.Y t y t V s.@X@X",
"@X@XO.C z T >.C.K.V.>.W t y c z X.@X@X",
"@X@X) z z ~ N.E.R.N.:.V t 5 M T } @X@X",
"@XD.B l T 8.J.(.^.S.] 7 * 5 v Y ..D.@X",
"@Xs.c t Q 0.U.^.`.@Xp.: o * t T ~ D.@X",
"@Xp.t l ^ M.E.R.@X@X@X< . - t V ( m.@X",
"a.I 7 c +.M.R.(.@X@X@Xk + o 4 M ( j.@X",
"t.G 5 M -.N.T.@X@X@X@Xd.- X 3 v ~ j.@X",
"_ g 5 M ;.M.J.@X@X@X@X@X- X 3 v ^ 9.@X",
"L h 5 B ;.M.H.@X@X@X@X@X< X 2 M ^ 9.V.",
"H u q V ;.M.H.@X@X@X@X@Xw o 8 v / 9.C.",
"h r 5 A ;.M.H.@X@X@X@X@Xs # 2 v | 0.V.",
"u q 5 C ;.M.L.@X@X@X@X@Xf & 2 v / 9.V.",
"q 9 q S ;.M.H.@X@X@X@X@Xf & 8 v +.0.N.",
"0 9 q A ;.M.L.@X@X@X@X@Xf & 9 B =.r.S.",
"9 9 q Y ;.M.J.@X@X@X@X@Xf & 3 B =.M.C.",
"9 9 e Y ;.M.T.@X@X@X@X@Xf : 9 B =.r.A.",
"> * 5 R ,.N.W.@X@X@X@X@Xf & 3 A =.M.A.",
"* > e R <.N.@X@X@X@X@X@Xf & 0 A ,.N.H.",
"> > q R =.N.@X@X@X@X@X@Xf & 0 S 5.N.F.",
"> > q S =.B.@X@X@X@X@X@Xg : 0 S 5.C.J.",
": > q A #.B.@X@X@X@X@X@Xg > 5 S 5.C.U.",
": > q A +.h.@X@X@X@X@X@Xg * e Y 5.C.U.",
"> : 0 Z ^ h.@X@X@X@X@X@Xd 2 e ` 6.A.R.",
": : 9 m ~ g.@X@X@X@X@XQ.d = y ] h.F.E.",
"; ; 8 m ! 3.@X@X@X@X@Xn.r 2 x } h.T.@X",
"% ; > b E *.@X@X@X@X@Xf.r 3 v  .j.R.@X",
"# # > i F o.v.@X@X@X@Xa.r 0 B ;.Z./.@X",
"; % : e Z [ f.@X@X@X@Xt.r e F 6.G.`.@X",
", ; ; 9 n J a.@X@X@X@X_ i y { 0.T.[.@X",
", ; # > e i y.@X@X@X@XU x m } x.R.{.@X",
"p % $ # > 8 g @X@X@Xb.U m Z *.c./.@X@X",
"a , O $ % + w f.@X@Xl.F Z U g.P._.@X@X",
"j p . O $ + 0 t.b.G.7.U S | l.!.[.@X@X",
"@Xa O O % : r U 2.6.%.U ' 8.P.'. X@X@X",
"@Xj   O # 8 b U } | { F %.c.).}.@X@X@X",
"@Xu.    # w r N F U E %.h.I.]..X@X@X@X",
"@X@X$ O % : r m J ' %.z.P.'..XOX@X@X@X",
"@X@Xp $ # w x U  .g.Z.!.'..XoX@X@X@X@X",
"@X@Xi.s 2 m ] 2.c.I._.}..XoXOX@X@X@X@X",
"@X@X@XL x { 6.G.).].XXoXoXoX@X@X@X@X@X",
"@X@X@X@Xo.8.c./.].oXoXoXoX@X@X@X@X@X@X",
"@X@X@X@X@XZ.I.'..XoXoXOX@X@X@X@X@X@X@X",
"@X@X@X@X@X@X~.]..XoXoX@X@X@X@X@X@X@X@X"
};
