/* XPM */
static const char *one[] = {
/* columns rows colors chars-per-pixel */
"11 50 129 2 ",
"   c #4F3E0C",
".  c #523F07",
"X  c #56420A",
"o  c #59450B",
"O  c #5C4A0D",
"+  c #564411",
"@  c #5A4611",
"#  c #5E4B15",
"$  c #624F0F",
"%  c #65520F",
"&  c #624E14",
"*  c #655113",
"=  c #6B5613",
"-  c #6E5813",
";  c #675419",
":  c #69561B",
">  c #6E5819",
",  c #735C16",
"<  c #725C1A",
"1  c #776111",
"2  c #7C6412",
"3  c #665825",
"4  c #6E5C21",
"5  c #6C5D2A",
"6  c #725F21",
"7  c #6F6028",
"8  c #766323",
"9  c #73632B",
"0  c #7A672A",
"q  c #7C6B35",
"w  c #836A13",
"e  c #896E14",
"r  c #856C1B",
"t  c #8D6E1A",
"y  c #8C7115",
"u  c #887019",
"i  c #917515",
"p  c #967914",
"a  c #9C7E15",
"s  c #90721D",
"d  c #977919",
"f  c #9C7C1B",
"g  c #816C25",
"h  c #987E24",
"j  c #85753C",
"k  c #9E8016",
"l  c #A38415",
"z  c #A88716",
"x  c #AA8A17",
"c  c #A2821E",
"v  c #AE8D18",
"b  c #B08E18",
"n  c #B39017",
"m  c #B4911B",
"M  c #B99418",
"N  c #BD991B",
"B  c #9C893F",
"V  c #A48322",
"C  c #A98624",
"Z  c #B89228",
"A  c #BC982A",
"S  c #A18536",
"D  c #BE9C3F",
"F  c #C39D1C",
"G  c #C9A21B",
"H  c #C49D21",
"J  c #C39F3D",
"K  c #CAA424",
"L  c #D4AA24",
"P  c #D9AF23",
"I  c #D6AB2C",
"U  c #D9AE2A",
"Y  c #DAB125",
"T  c #DFB628",
"R  c #D7AD32",
"E  c #D9AF34",
"W  c #DBB133",
"Q  c #DBB23B",
"!  c #E2B827",
"~  c #E2B729",
"^  c #E4BB2C",
"/  c #E2BA36",
"(  c #E4BC3B",
")  c #E7C035",
"_  c #EDC335",
"`  c #E9C23B",
"'  c #8E8045",
"]  c #9A8E54",
"[  c #9C9054",
"{  c #9E9359",
"}  c #A6954C",
"|  c #DEB440",
" . c #DFB950",
".. c #DEBA58",
"X. c #E6BC44",
"o. c #E9BF42",
"O. c #E6BD49",
"+. c #E5BD50",
"@. c #EBC443",
"#. c #EEC946",
"$. c #E7C04F",
"%. c #EAC54B",
"&. c #EDC94B",
"*. c #E9C352",
"=. c #ECCA53",
"-. c #E5C059",
";. c #ECCD5C",
":. c #E5C261",
">. c #EDCE63",
",. c #EED067",
"<. c #EED169",
"1. c #F0D46A",
"2. c #E9CA71",
"3. c #E8CD7D",
"4. c #EDD270",
"5. c #F1DA7D",
"6. c #EBCE80",
"7. c #EED388",
"8. c #F1DC83",
"9. c #F1D68B",
"0. c #F1DE8A",
"q. c #EED9A0",
"w. c #F0DCA4",
"e. c #F0DDA8",
"r. c #F2E1AD",
"t. c #F5E9AA",
"y. c #F2E0B3",
"u. c #F4E4BB",
"i. c None",
/* pixels */
"i.i.i.1.&.^ G a w u c ",
"i.i.i.;.` Y n i u k A ",
"i.i.<.&.! F p e k K ( ",
"i.1.&.` L z y a G ) &.",
"&.` _ T N p p N ~ #.;.",
"Y Y Y G l i z L ) =.;.",
"v v v k y p N ^ @.=.;.",
"w w 2 1 w l L _ &.=.,.",
"% $ $ % w M T @.&.=.,.",
"O O O - i G ) ` %.;.i.",
"O O % 2 d N T @.%.;.i.",
"O 1 2 i i z K ) %.;.i.",
"- 2 e w 2 e m T #.;.i.",
"1 2 u 1 $ = k Y @.>.i.",
"2 u 0 : + O y G ) ;.i.",
"u } i.3 X + e F / ;.i.",
"B i.i.5   O w F / ;.i.",
"i.i.i.5 . # e F / >.i.",
"i.i.i.7 . & e K ( >.i.",
"i.i.i.9 o $ e H ( <.i.",
"i.i.i.0 o % e H ( <.i.",
"i.i.i.0 O % y H / <.i.",
"i.i.i.8 o % t H / >.i.",
"i.i.i.6 X * i K ( <.i.",
"i.i.i.4 X % d L @.<.i.",
"i.i.i.4 X * d L o.5.i.",
"i.i.i.6 X * f L @.8.i.",
"i.i.i.8 o = d L ( 8.i.",
"i.i.i.< o = f L ( 8.i.",
"i.i.i.> X - f U @.8.i.",
"i.i.i.; . - c W %.0.i.",
"i.i.i.; . , c W *.0.i.",
"i.i.i.: . = c I %.0.i.",
"i.i.i.: X > f U o.8.i.",
"i.i.i.: X > f I ( 8.i.",
"i.i.i.; o > f I X.8.i.",
"i.i.[ ; o : f I X.0.i.",
"i.i.] & X , V E $.0.i.",
"i.i.{ * X , V Q *.0.i.",
"i.i.[ ; @ , C Q *.0.i.",
"i.i.' & & < f E +.0.i.",
"i.i.j & . < C E O.i.i.",
"i.i.j & @ > f E X.i.i.",
"i.i.j & . > h R X.i.i.",
"i.i.q # + < C E O.i.i.",
"i.i.9 @ & t H | +.i.i.",
"i.i.5 ; r Z | -.:.i.i.",
"i.i.q s A  .2.6.3.i.i.",
"i.i.S R :.9.w.e.q.t.i.",
"i.i.} ..7.y.u.u.y.i.i."
};
