/* XPM */
static const char *two[] = {
/* columns rows colors chars-per-pixel */
"19 50 195 2 ",
"   c #3E3104",
".  c #443505",
"X  c #4D3E0A",
"o  c #493905",
"O  c #503F06",
"+  c #493D11",
"@  c #4F4009",
"#  c #55450B",
"$  c #5D4B0C",
"%  c #554413",
"&  c #594713",
"*  c #5D4A15",
"=  c #5C4D1A",
"-  c #614F0E",
";  c #65520E",
":  c #6E590E",
">  c #6C560E",
",  c #745C0C",
"<  c #7F5F0B",
"1  c #624E15",
"2  c #604F1B",
"3  c #6A5416",
"4  c #6F5914",
"5  c #64521A",
"6  c #6C5719",
"7  c #6B5617",
"8  c #725B13",
"9  c #725B1A",
"0  c #7C610D",
"q  c #7B6312",
"w  c #76611B",
"e  c #7C631B",
"r  c #685B29",
"t  c #766020",
"y  c #7C7546",
"u  c #886C0E",
"i  c #82680F",
"p  c #846A13",
"a  c #8A6D13",
"s  c #82671B",
"d  c #846B1C",
"f  c #8B6E1C",
"g  c #806611",
"h  c #906F14",
"j  c #8D7015",
"k  c #8E711B",
"l  c #937515",
"z  c #967813",
"x  c #9B7B13",
"c  c #93751C",
"v  c #97781B",
"b  c #9C7C1A",
"n  c #9A7716",
"m  c #A67F18",
"M  c #836B21",
"N  c #897223",
"B  c #8A7325",
"V  c #9B7C21",
"C  c #827435",
"Z  c #947E33",
"A  c #867E4D",
"S  c #A38314",
"D  c #AF8C16",
"F  c #A5831B",
"G  c #A9861C",
"H  c #AE8A1B",
"J  c #B08D15",
"K  c #B18D1D",
"L  c #B49119",
"P  c #B9951B",
"I  c #B99518",
"U  c #9E8121",
"Y  c #9B853A",
"T  c #AD8B22",
"R  c #A78727",
"E  c #B38E23",
"W  c #B69122",
"Q  c #BC9525",
"!  c #BE9A2C",
"~  c #B89529",
"^  c #A38A36",
"/  c #AA943E",
"(  c #BD9E3C",
")  c #B89936",
"_  c #C39D1B",
"`  c #C59D17",
"'  c #CDA61E",
"]  c #C7A21D",
"[  c #D5AD1E",
"{  c #DDB21F",
"}  c #C49E25",
"|  c #C29C2D",
" . c #C59F31",
".. c #CCA52B",
"X. c #CBA62B",
"o. c #D5AC28",
"O. c #DBB328",
"+. c #C6A232",
"@. c #CAA432",
"#. c #C7A13C",
"$. c #D3AB32",
"%. c #D2AD3B",
"&. c #D6B23D",
"*. c #D9B434",
"=. c #E1B624",
"-. c #E5B923",
";. c #E2B829",
":. c #E2BB34",
">. c #E5BF3D",
",. c #E2B63C",
"<. c #EBC234",
"1. c #EAC43C",
"2. c #E5C03F",
"3. c #8D8249",
"4. c #9F9252",
"5. c #A38F49",
"6. c #AA994D",
"7. c #B4AA6A",
"8. c #BEB165",
"9. c #CCAC43",
"0. c #C2A549",
"q. c #C3A745",
"w. c #D1AD44",
"e. c #CAB14B",
"r. c #D3B143",
"t. c #DBB545",
"y. c #DAB64C",
"u. c #DAB84B",
"i. c #C5AD52",
"p. c #C8B358",
"a. c #DCB952",
"s. c #E2BB47",
"d. c #E2BC48",
"f. c #E4BE53",
"g. c #E2BE58",
"h. c #C8B865",
"j. c #DEC25B",
"k. c #EBC544",
"l. c #E6C24B",
"z. c #ECC84C",
"x. c #EEC846",
"c. c #F0CB4E",
"v. c #EECC54",
"b. c #E4C15B",
"n. c #ECCC5B",
"m. c #E6C255",
"M. c #F0CE5D",
"N. c #EFD05E",
"B. c #D7C36A",
"V. c #E6C463",
"C. c #E8C660",
"Z. c #E7C669",
"A. c #EBCB6B",
"S. c #EBCB61",
"D. c #F1CF67",
"F. c #EED26B",
"G. c #EDD166",
"H. c #F0D36D",
"J. c #EACE7A",
"K. c #EECF76",
"L. c #EED37C",
"P. c #EED677",
"I. c #F2D675",
"U. c #F1D57A",
"Y. c #EACE81",
"T. c #EDD385",
"R. c #EDD38B",
"E. c #F2D785",
"W. c #F4DB8C",
"Q. c #F1DB87",
"!. c #EED795",
"~. c #EFD89B",
"^. c #EFD995",
"/. c #F2DB92",
"(. c #F2DC9C",
"). c #F6E08E",
"_. c #F5E49E",
"`. c #F1DFAC",
"'. c #F2DCA1",
"]. c #F5E1A4",
"[. c #F5E5AB",
"{. c #F7E8AA",
"}. c #F4E3B2",
"|. c #F7EAB5",
" X c #F4E5BC",
".X c #F7EBBE",
"XX c #F9EFB6",
"oX c #FAF2BA",
"OX c #F6E9C4",
"+X c #F8EEC7",
"@X c #F6ECCC",
"#X c #F8EBC5",
"$X c #F9F2C5",
"%X c #F9F1C9",
"&X c None",
/* pixels */
"&X&X&X&XF.H.N.z.<.-.] S t &X&X&X&X&X&X",
"&X&X&Xv.M.N.v.x.<.{ I z 8 r 3.&X&X&X&X",
"&X&X*.O.:.2.2.:.O.] S q $ o @ y &X&X&X",
"&X&XT L ] ' ' ] P S q ; @ .   = &X&X&X",
"&X&XN u z S D J S j : # @ @ @ $ C &X&X",
"&X&Xw > i S P ] L S q $ # $ ; 0 M &X&X",
"&X&X4 0 S X.2.k.*.] z : - : q u z h.&X",
"&X7.0 S X.n.I.I.z.O.S q 4 q z S D e.&X",
"&X8.x X.N.Q.).P.k.' x q 4 p G I ' *.&X",
"&XB.Q l.).{.].H.&.G 0 $ ; p L [ -.1.&X",
"&XP.l.Q.&X&X&X&Xp.B $ @ # q I =.<.z.n.",
"&X&X&X&X&X&X&X&X&X3.%   @ q L =.1.n.F.",
"&X&X&X&X&X&X&X&X&X&Xr   X 8 D =.k.N.F.",
"&X&X&X&X&X&X&X&X&X&X3.o # 8 D ;.z.F.P.",
"&X&X&X&X&X&X&X&X&X&X4.$ $ q K :.N.E.&X",
"&X&X&X&X&X&X&X&X&X&X6., > p Q l.I.).&X",
"&X&X&X&X&X&X&X&X&X&X/ 0 0 z +.S.W.{.&X",
"&X&X&X&X&X&X&X&X&X&XR 0 q G &.K.].XX&X",
"&X&X&X&X&X&X&X&X&Xi.U p a I s.E.[.oX&X",
"&X&X&X&X&X&X&X&X&Xq.b p l _ v./.[.&X&X",
"&X&X&X&X&X&X&X&X&X) z a b $.D.(.|.&X&X",
"&X&X&X&X&X&X&X&XB.E j j T u.E.[.#X&X&X",
"&X&X&X&X&X&X&X&X9.F a z } V._..X&X&X&X",
"&X&X&X&X&X&X&X&X! b a S *.P.}.+X&X&X&X",
"&X&X&X&X&X&X&Xj.K l k W l.W..X+X&X&X&X",
"&X&X&X&X&X&X&Xr.G l b +.A.].+X&X&X&X&X",
"&X&X&X&X&X&Xj.| F j K t.T.|.+X&X&X&X&X",
"&X&X&X&X&X&X%.G c v } n.].OX$X&X&X&X&X",
"&X&X&X&X&X&X! b l R %.U.}.+X&X&X&X&X&X",
"&X&X&X&X&Xy.T l l Q a.(..X%X&X&X&X&X&X",
"&X&X&X&X&X+.F k F $.K.}.+X&X&X&X&X&X&X",
"&X&X&X&Xj.W v k E d.W. X+X&X&X&X&X&X&X",
"&X&X&X&X9.G c b  .Z.'.#X$X&X&X&X&X&X&X",
"&X&X&Xb.! b a K r.T.|..X&X&X&X&X&X&X&X",
"&X&X&Xr.H c c  .C.(.[.|.&X&X&X&X&X&X&X",
"&X&X&X@.m c R 9.L.(.!.&X&X&X&X&X&X&X&X",
"&X&Xt.Q b c E t.A.L.L.&X&X&X&X&X&X&X&X",
"&XF.$.E c f R $.,.a.&X&X&X&X&X&X&X&X&X",
"&Xa.} T f e k T E 0.&X&X&X&X&X&X&X&X&X",
"0.( W V e 4 6 8 d 5.&X&X&X&X&X&X&X&X&X",
"Z V V f s 1 % & 6 B ) 9.9.6.^ Z Y &X&X",
"Z f s s 3 & X & 6 c m H m h g i n B.&X",
"s 9 9 3 1 & & * 9 N V V M s h m @.U.&X",
"6 5 1 * 1 3 8 s s f k f f c T @.d.&X&X",
"2 * & 5 s V m | | E E m E | %.s.b.&X&X",
"= * 3 f | w.g.g.a.a.a.a.f.f.V.V.Z.&X&X",
"2 6 c  .f.Y.~.'.!.!.!.!.!.!.R.Y.J.&X&X",
"s c  .V.!.}.OX@XOXOXOX#X X X`.~.!.&X&X",
"V #.V.!. XOX@X@X@X@X@X@X@X@X X X`.&X&X",
"w.g.R.}.OX@X@X@X@X@X@X@X@X@XOXOX X&X&X"
};
