/* XPM */
static const char *three[] = {
/* columns rows colors chars-per-pixel */
"20 50 200 2 ",
"   c #3F320B",
".  c #453706",
"X  c #42350C",
"o  c #4B3C0C",
"O  c #493909",
"+  c #493C13",
"@  c #54430B",
"#  c #5A470F",
"$  c #5C4A0C",
"%  c #5C4804",
"&  c #584710",
"*  c #5D4A12",
"=  c #544719",
"-  c #574918",
";  c #614E0D",
":  c #6A540E",
">  c #66510D",
",  c #715A0D",
"<  c #634F12",
"1  c #6B5513",
"2  c #6F5913",
"3  c #6F5B1F",
"4  c #745D13",
"5  c #7C630C",
"6  c #776114",
"7  c #7C6313",
"8  c #7A6419",
"9  c #766219",
"0  c #594D21",
"q  c #6A5D2C",
"w  c #6E5B20",
"e  c #746429",
"r  c #796728",
"t  c #7A6C34",
"y  c #83670D",
"u  c #876A06",
"i  c #856B15",
"p  c #896E15",
"a  c #846A1B",
"s  c #896D1B",
"d  c #816716",
"f  c #8D7113",
"g  c #8E7219",
"h  c #927614",
"j  c #977913",
"k  c #9B7C15",
"l  c #91741B",
"z  c #9B7C1C",
"x  c #97781E",
"c  c #88722A",
"v  c #947A22",
"b  c #9D7D21",
"n  c #8D7B39",
"m  c #927F37",
"M  c #A07E20",
"N  c #817645",
"B  c #B28D0C",
"V  c #A58416",
"C  c #AD8B15",
"Z  c #A4811F",
"A  c #AC891B",
"S  c #A8871E",
"D  c #B28D15",
"F  c #B4911A",
"G  c #BB951A",
"H  c #BF9A1C",
"J  c #9B8233",
"K  c #A38321",
"L  c #A98622",
"P  c #AC8924",
"I  c #AC8C2D",
"U  c #B28D22",
"Y  c #B08E2A",
"T  c #B69225",
"R  c #BB9424",
"E  c #BE9A22",
"W  c #BD9629",
"Q  c #B8962C",
"!  c #A38933",
"~  c #A18C3C",
"^  c #B89633",
"/  c #BEA037",
"(  c #C39D1D",
")  c #CA9E18",
"_  c #CAA41D",
"`  c #C6A01C",
"'  c #D2AA1D",
"]  c #D6AA1B",
"[  c #C39D22",
"{  c #C59F2C",
"}  c #C89F29",
"|  c #C09F39",
" . c #CBA327",
".. c #C5A22B",
"X. c #CBA22D",
"o. c #CFA929",
"O. c #D7AD24",
"+. c #DBAE2B",
"@. c #D1A424",
"#. c #DDB324",
"$. c #DBB32A",
"%. c #DEB82F",
"&. c #C2A137",
"*. c #CAA435",
"=. c #CFA939",
"-. c #D3AA36",
";. c #D1AA3A",
":. c #D8AF31",
">. c #DCB535",
",. c #DDB53A",
"<. c #DAB437",
"1. c #E3B722",
"2. c #E6BA2B",
"3. c #E5BB2A",
"4. c #E2BB34",
"5. c #E1B63C",
"6. c #E3BC3A",
"7. c #EDC53E",
"8. c #EBC33A",
"9. c #8A814B",
"0. c #968748",
"q. c #998644",
"w. c #8D8551",
"e. c #938A56",
"r. c #9D9051",
"t. c #A99341",
"y. c #B59C42",
"u. c #B09542",
"i. c #A4975A",
"p. c #B39F55",
"a. c #BBA85B",
"s. c #CEA942",
"d. c #D0AF48",
"f. c #D2AC41",
"g. c #CFB04E",
"h. c #D5B24A",
"j. c #D9B44E",
"k. c #DDB843",
"l. c #D3BB5A",
"z. c #E3BC45",
"x. c #E3BC4C",
"c. c #E2BD54",
"v. c #D6BF66",
"b. c #EAC342",
"n. c #E4C14A",
"m. c #EAC54B",
"M. c #EDC94A",
"N. c #E6C252",
"B. c #E9C556",
"V. c #EECB52",
"C. c #E4C35C",
"Z. c #E8C65D",
"A. c #EECE5A",
"S. c #F3D55F",
"D. c #E4C361",
"F. c #EBCC65",
"G. c #ECCC6C",
"H. c #E5C669",
"J. c #F0CF67",
"K. c #F0CF6D",
"L. c #EAD46E",
"P. c #F1D064",
"I. c #F2D56B",
"U. c #F0DA6E",
"Y. c #E7C870",
"T. c #EBCE76",
"R. c #EACE7C",
"E. c #EDD97B",
"W. c #EED179",
"Q. c #F2D573",
"!. c #F3DC77",
"~. c #F3DC7D",
"^. c #F2D579",
"/. c #EED285",
"(. c #F2DA85",
"). c #F0D782",
"_. c #EDD692",
"`. c #EFD99A",
"'. c #F2DB94",
"]. c #F2DC9B",
"[. c #F4E181",
"{. c #F4E38E",
"}. c #F5E595",
"|. c #F4E59D",
" X c #F8E99F",
".X c #F1DDA3",
"XX c #F5E2A2",
"oX c #F2E1AB",
"OX c #F7EAA8",
"+X c #F4E4B6",
"@X c #F4E5BB",
"#X c #F6E9BB",
"$X c #F6E8B3",
"%X c #F6E9C4",
"&X c #F9EFC1",
"*X c #F6EBCC",
"=X c #F8EFCA",
"-X c #FAF4C6",
";X c #F8F0C8",
":X c None",
/* pixels */
":X:X:X:X:XU.J.V.8.1.] D l J :X:X:X:X:X:X",
":X:X:XS.V.A.V.M.8.8._ B 7 q 9.:X:X:X:X:X",
":X:X:X%.#.6.8.>.$.' F h 6 @   - :X:X:X:X",
":X:X:XT B ` _ ` G C V 7 ; @ @   t :X:X:X",
":X:X:Xv u j V B C V 7 : & @ @ % 8 :X:X:X",
":X:X:X9 , f C H ( F f , ; ; , 5 h t.:X:X",
":X:Xr.9 5 F $.b.7.$.D p , 6 i k V Y :X:X",
":X:X0.f B ,.P.E.U.8.( k 7 i V D H E :X:X",
":X:X~ G 4.Q.'.'.J.4.G f 7 p V H ' O.U.:X",
":X:X/ ,.U.XXOX}.A.@.j , : 7 V ( ] 1.U.:X",
":X:XN.!. X:X:X:X:Xy.6 @ @ 1 h ` 1.8.!.:X",
":X:X:X:X:X:X:X:X:X:Xt @ o $ f ( 8.8.[.:X",
":X:X:X:X:X:X:X:X:X:Xe.- @ $ f ..8.V.{.:X",
":X:X:X:X:X:X:X:X:X:Xi.3 & > h ..b.F.}.:X",
":X:X:X:X:X:X:X:X:X:Xa.c , 6 k o.B.^. X:X",
":X:X:X:X:X:X:X:X:X:Xl.K 7 7 C >.J.(.OX:X",
":X:X:X:X:X:X:X:X:X:Xn.F f h ( m.).|.:X:X",
":X:X:X:X:X:X:X:X:X!.4.G k S <.I.XX$X:X:X",
":X:X:X:X:X[.{.}.~.m.O.A V  .Z.].#X&X:X:X",
":X:X:X:Xz.2.z.m.m.,.[ A E z.(.+X&X:X:X:X",
":X:X:X:X&.` 1.2.+.[ A G >.K.XX#X&X:X:X:X",
":X:X:X:X! V G ( A z z ( b.^.'.XX:X:X:X:X",
":X:X:X:Xc 7 p g i d z [ 5.Z.^.}.:X:X:X:X",
":X:X:X:Xe > 1 6 7 i l S F { l.:X:X:X:X:X",
":X:X:X:Xe $ 4 h z z h i d d m :X:X:X:X:X",
":X:X:X:Xr y S { X.R l 1 @ O = 9.:X:X:X:X",
":X:X:Xi.v R >.m.6.} l * X X X - w.:X:X:X",
":X:X:Xa.&.x.K.K.z.[ p & X X O o r :X:X:X",
":X:X:X:XE.}.OX XH.Y 4 @ X + & : a a.:X:X",
":X:X:X:X:X:X:X:X:Xp.3 O X o < d v y.:X:X",
":X:X:X:X:X:X:X:X:X:XN + X o 1 p S | :X:X",
":X:X:X:X:X:X:X:X:X:X:X0 X o 1 l T =.:X:X",
":X:X:X:X:X:X:X:X:X:X:Xq o @ 2 x [ :.E.:X",
":X:X:X:X:X:X:X:X:X:X:Xt & # 4 M  .5.~.:X",
":X:X:X:X:X:X:X:X:X:X:Xn 1 < 8 P +.z.(.:X",
":X:X:X:X:X:X:X:X:X:X:XJ 4 2 a T ,.B.{.:X",
":X:X:X:X:X:X:X:X:X:Xv.I s 4 l { z.G.}.:X",
":X:X:X:X:X:X:X:X:X:Xc.{ v a M *.C.T.XX:X",
":X:X:X:X:X:X:X:X:X:Xc.} M g U k.Y./.:X:X",
"h.d.s.h.:X:X:X:X|.T.x.{ M M } c./.].:X:X",
"u.^ [ } 5.c.F.R.T.D.z.[ M U j.R..X.X:X:X",
"m m M { @.+.5.x.c.z.X.U U ;.Y..X+X&X:X:X",
":Xn l M { X.-.;.:.} R U | D.`.@X=X:X:X:X",
":Xc 4 s M M U Y R T { | c._.+X*X=X:X:X:X",
":Xq - 3 s M U [ } *.j.H.].+X*X*X=X:X:X:X",
":Xq ; d M { s.j.c.D./..X@X*X*X%X:X:X:X:X",
":Xt d L f.D./._.`..X@X%X%X*X*X=X:X:X:X:X",
":X! ^ j.R.`.+X@X%X*X*X*X*X*X;X:X:X:X:X:X",
":Xv.D.)..X%X*X*X*X*X*X*X*X-X:X:X:X:X:X:X",
":X:X:X.X@X%X*X*X*X*X*X*X:X:X:X:X:X:X:X:X"
};
