/* XPM */
static const char *four[] = {
/* columns rows colors chars-per-pixel */
"20 50 201 2 ",
"   c #4C3C0C",
".  c #4F3C04",
"X  c #513F08",
"o  c #56440C",
"O  c #5D490E",
"+  c #554413",
"@  c #594713",
"#  c #5D4A14",
"$  c #5B4D1C",
"%  c #574919",
"&  c #624E0E",
"*  c #664D05",
"=  c #69530D",
"-  c #65500E",
";  c #614D13",
":  c #675211",
">  c #6B5512",
",  c #6F5913",
"<  c #745C13",
"1  c #755E1A",
"2  c #7D640F",
"3  c #7B6214",
"4  c #76601C",
"5  c #6C5B24",
"6  c #675826",
"7  c #746124",
"8  c #7A6523",
"9  c #76652F",
"0  c #7D6827",
"q  c #7D6E39",
"w  c #736736",
"e  c #7C703C",
"r  c #7B7042",
"t  c #81660C",
"y  c #8B6E0F",
"u  c #876B0E",
"i  c #97770F",
"p  c #816616",
"a  c #846A13",
"s  c #896D13",
"d  c #856B1B",
"f  c #8B6E1A",
"g  c #816718",
"h  c #8D7113",
"j  c #8D711A",
"k  c #937515",
"l  c #967915",
"z  c #9B7C15",
"x  c #94761E",
"c  c #9C7D1C",
"v  c #95781D",
"b  c #A17E17",
"n  c #816B26",
"m  c #83702B",
"M  c #947B26",
"N  c #967B25",
"B  c #837235",
"V  c #85763C",
"C  c #87793E",
"Z  c #887636",
"A  c #867B47",
"S  c #9E8019",
"D  c #A48416",
"F  c #AC8A16",
"G  c #A5831B",
"H  c #A9861C",
"J  c #AD8A1C",
"K  c #B28D1C",
"L  c #B38E12",
"P  c #B59119",
"I  c #BB9519",
"U  c #BB9618",
"Y  c #9B8227",
"T  c #9A822F",
"R  c #998538",
"E  c #A48623",
"W  c #AB8921",
"Q  c #A78928",
"!  c #B49225",
"~  c #BB9526",
"^  c #BE972B",
"/  c #BF9928",
"(  c #A18834",
")  c #A88D37",
"_  c #AC933A",
"`  c #BF9D30",
"'  c #C59D1B",
"]  c #C69F18",
"[  c #C6A01D",
"{  c #CAA21C",
"}  c #D1A91F",
"|  c #DFB31E",
" . c #C19B22",
".. c #C29C2B",
"X. c #C39E32",
"o. c #CDA423",
"O. c #C6A02C",
"+. c #CCA42C",
"@. c #D6AB23",
"#. c #D6AD2B",
"$. c #D6AC28",
"%. c #DDB325",
"&. c #DEB12A",
"*. c #CBA635",
"=. c #CAA73B",
"-. c #CCAA3C",
";. c #CBA735",
":. c #D9AE36",
">. c #D5AC33",
",. c #DEB23D",
"<. c #DAB33B",
"1. c #E1B62E",
"2. c #E4BA2B",
"3. c #EABF2E",
"4. c #E2B725",
"5. c #E7BC36",
"6. c #E3B93A",
"7. c #E6BB3B",
"8. c #EBC135",
"9. c #EBC33B",
"0. c #9B8A45",
"q. c #948649",
"w. c #8C8452",
"e. c #878051",
"r. c #B59D45",
"t. c #B19D4B",
"y. c #A79A5B",
"u. c #BDA54E",
"i. c #B6A353",
"p. c #B8A75C",
"a. c #BFB26F",
"s. c #C9AA45",
"d. c #CCB24C",
"f. c #DCB543",
"g. c #D3B64A",
"h. c #D8B545",
"j. c #CEB654",
"k. c #DFBB55",
"l. c #DEBC5E",
"z. c #E5BE44",
"x. c #E3BC4B",
"c. c #E4BF55",
"v. c #C4B466",
"b. c #CABB6D",
"n. c #D4BF66",
"m. c #CDBF73",
"M. c #C1BA7E",
"N. c #DCC157",
"B. c #ECC743",
"V. c #E6C34C",
"C. c #EAC64D",
"Z. c #EDCA4C",
"A. c #EEC945",
"S. c #E5C255",
"D. c #E9C453",
"F. c #EECC54",
"G. c #E2C45C",
"H. c #EAC95C",
"J. c #D4C77C",
"K. c #EACA62",
"L. c #E6C669",
"P. c #E5CC6C",
"I. c #EACB6C",
"U. c #E6C865",
"Y. c #EDD16B",
"T. c #EFD363",
"R. c #F2D86F",
"E. c #EACC75",
"W. c #ECCF7C",
"Q. c #EDD375",
"!. c #EED47C",
"~. c #F1D975",
"^. c #F2DB7B",
"/. c #C9C58C",
"(. c #D9CD81",
"). c #DCD287",
"_. c #DAD79B",
"`. c #EEDD86",
"'. c #EED48C",
"]. c #E8D789",
"[. c #F0D98D",
"{. c #F1D688",
"}. c #EED899",
"|. c #F0DA91",
" X c #F1DC9E",
".X c #F5E48B",
"XX c #F4E084",
"oX c #EFE292",
"OX c #F5E79B",
"+X c #F1DDA5",
"@X c #F2DFAD",
"#X c #F2DFB2",
"$X c #F4E2A4",
"%X c #F7E8A5",
"&X c #F4E3B3",
"*X c #F7EAB3",
"=X c #F5E6BA",
"-X c #F6E9BC",
";X c #FBF4B9",
":X c #FDF9BF",
">X c None",
/* pixels */
">X>X>X>X>X>X>X>XB.9.3.%.U S 2 3 >X>X>X>X",
">X>X>X>X>X>X>X>X8.8.4.[ D 2 2 S u.>X>X>X",
">X>X>X>X>X>X>XK.| | [ F h y S [ F.>X>X>X",
">X>X>X>X>X>X>XN.{ ] F k 2 S ] 2.T.>X>X>X",
">X>X>X>X>X>X>X-.L D u 2 S U %.9.~.>X>X>X",
">X>X>X>X>X>XN.! S 2 2 u F @.8.Z.~.>X>X>X",
">X>X>X>X>X>Xp.S 2 2 2 S [ 2.9.Z.~.>X>X>X",
">X>X>X>X>X>X_ a 2 2 S L } 8.9.C.~.>X>X>X",
">X>X>X>X>X).Y t s z F P [ %.8.C.^.>X>X>X",
">X>X>X>X>Xb.h 2 z F J S D [ &.F.^.>X>X>X",
">X>X>X>X>Xi.s y D J Y d 2 F #.Z..X>X>X>X",
">X>X>X>XJ.T a h D Y R 5 = l @.A..X>X>X>X",
">X>X>X>Xb.M a k S T A 6 & h { A.>X>X>X>X",
">X>X>X>Xi.a y z ) q.e $ O y [ B..X>X>X>X",
">X>X>X).) u k D _ y.r $ & h [ B..X>X>X>X",
">X>X>Xv.M h D U j.J.r $ & h [ 9..X>X>X>X",
">X>X>Xt.j z U ] P._.e.+ & k { A..X>X>X>X",
">X>X].T s G [ ;.`.>Xw.+ & l o.F..X>X>X>X",
">X>Xm.M y P @.h.oX>Xw.% = l o.F.OX>X>X>X",
">X>Xi.f z ] 6.N.>X>Xw.# = l +.F.>X>X>X>X",
">X(.( f F @.z.`.>X>Xw.: : l o.F.>X>X>X>X",
">Xm.M k ' 1.D.OX>X>XA @ > k ' F.>X>X>X>X",
">Xp.a l o.5.H.>X>X>XC o > k ] V.>X>X>X>X",
"v.R 3 z o.7.P.>X>X>XC o : s F g.>X>X>X>X",
"0.m < s K -.].>X>X>X0.& : 3 h r.>X>X>X>X",
"Z 7 : < h v.>X>X>X>Xr.p , = = 0.>X>X>X>X",
"B 7 ; = 4 p.>X>X>XOXh.G p ; o q /.>X>X>X",
"B 8 , > 1 T d.G.Y.Y.x.+.c >   % w R y.b.",
"B n 3 g j b ' &.z.D.C.,.K < +     * M u.",
"B n g f v H ~ #.7.x.z.>.W < @ ; 3 l s.N.",
"Z 0 3 d k c H ! ..+.*.~ c g p k J o.V.Y.",
"B 7 > 1 f b J K K K H G G H ! ..>.6.H.Q.",
"9 5 > s W ` =.=...! W ! X.<.x.D.D.c.K.Q.",
"5 1 f ~ f.L.E.L.x.>.@.:.c.W.|.[.W.L.I.!.",
"8 x ..c.{.$X%X|.K.7.1.6.I. X&X&X X'.{.{.",
"E ..c.'.#X=X+XE.h.O.~ *.c.}.=X=X&X+X XOX",
"f.U.[.&X-X&X|.H.=.N d b =.L. X&X-X=X*X*X",
">X>X>X>X:X;X>X>Xm.V ; , W f.Q.+X;X>X>X>X",
">X>X>X>X>X>X>X>X>Xr % @ j +.D.{.>X>X>X>X",
">X>X>X>X>X>X>X>X>Xq X @ d  .x.!.>X>X>X>X",
">X>X>X>X>X>X>X>X>Xq % ; d ^ f.E.>X>X>X>X",
">X>X>X>X>X>X>X>X>Xq # @ f  .z.Q.>X>X>X>X",
">X>X>X>X>X>X>X>X>XB $ ; d ^ :.!.>X>X>X>X",
">X>X>X>X>X>X>X>X>Xq # ; d ^ :.Q.>X>X>X>X",
">X>X>X>X>X>X>X>X>X9 @ ; f  .:.Q.>X>X>X>X",
">X>X>X>X>X>X>X>X>X6 @ , c X.,.Q.>X>X>X>X",
">X>X>X>X>X>X>X>X>X5 ; f ..f.x.{.>X>X>X>X",
">X>X>X>X>X>X>X>X>Xn x X.c.L.E.|.>X>X>X>X",
">X>X>X>X>X>X>X>XJ._ X.L.'.+X}.@X>X>X>X>X",
">X>X>X>X>X>X>X>X>Xs.l.|.@X#X#X*X>X>X>X>X"
};
