/* XPM */
static const char *five[] = {
/* columns rows colors chars-per-pixel */
"19 50 196 2 ",
"   c #3B2D03",
".  c #45360A",
"X  c #4A3A0C",
"o  c #443406",
"O  c #503F0D",
"+  c #4B3D13",
"@  c #52420E",
"#  c #59470E",
"$  c #5D4A0D",
"%  c #584712",
"&  c #5D4B10",
"*  c #584818",
"=  c #624E0D",
"-  c #66520C",
";  c #6A550C",
":  c #6E580E",
">  c #775E0E",
",  c #614E11",
"<  c #655112",
"1  c #6B5613",
"2  c #6E5913",
"3  c #63511B",
"4  c #735C14",
"5  c #755E1C",
"6  c #7C630D",
"7  c #7B6316",
"8  c #7A631A",
"9  c #5D4F21",
"0  c #5F5021",
"q  c #6C5A22",
"w  c #61562A",
"e  c #695823",
"r  c #7C6622",
"t  c #75652C",
"y  c #7C6B2D",
"u  c #746221",
"i  c #7F7134",
"p  c #7C7244",
"a  c #8D700F",
"s  c #92740F",
"d  c #816715",
"f  c #856B14",
"g  c #8A6E14",
"h  c #806719",
"j  c #876B1C",
"k  c #8C6F1B",
"l  c #8D7112",
"z  c #8F711C",
"x  c #937614",
"c  c #967914",
"v  c #9D7E14",
"b  c #97771B",
"n  c #9A7B1B",
"m  c #957818",
"M  c #876B0C",
"N  c #826F2C",
"B  c #896F21",
"V  c #8F7326",
"C  c #8D7428",
"Z  c #9C7C22",
"A  c #847536",
"S  c #83763E",
"D  c #897A38",
"F  c #917D39",
"G  c #8B7D45",
"H  c #867B46",
"J  c #9F801E",
"K  c #A5830F",
"L  c #A38212",
"P  c #A4821D",
"I  c #A9861F",
"U  c #AE8C1C",
"Y  c #AC8B15",
"T  c #B38F15",
"R  c #B58F1C",
"E  c #BB9514",
"W  c #B69219",
"Q  c #BA961A",
"!  c #BA9515",
"~  c #988130",
"^  c #A28224",
"/  c #A98623",
"(  c #AD8924",
")  c #A4882C",
"_  c #B38D24",
"`  c #B49025",
"'  c #BA9324",
"]  c #BE9922",
"[  c #BA942B",
"{  c #B9962B",
"}  c #B79A38",
"|  c #A88C34",
" . c #C0991D",
".. c #C19B15",
"X. c #CCA51B",
"o. c #C7A11A",
"O. c #D6AC1D",
"+. c #D5AB1D",
"@. c #C39C25",
"#. c #C29B2C",
"$. c #CCA321",
"%. c #CAA52B",
"&. c #CEAA2C",
"*. c #D3A924",
"=. c #DBAE2D",
"-. c #D7AC25",
";. c #DCB323",
":. c #DDB32D",
">. c #C9A432",
",. c #CBA538",
"<. c #D1A935",
"1. c #D5AE3D",
"2. c #D1A633",
"3. c #DAB53A",
"4. c #DDB93D",
"5. c #DAB436",
"6. c #E2B621",
"7. c #E6BC29",
"8. c #E5BB2A",
"9. c #E4BD3E",
"0. c #E2B836",
"q. c #EBC12D",
"w. c #EAC133",
"e. c #EAC238",
"r. c #E7C039",
"t. c #958545",
"y. c #93864B",
"u. c #998B48",
"i. c #958E5E",
"p. c #A59348",
"a. c #B4A049",
"s. c #9F9A68",
"d. c #B3A562",
"f. c #CCAA41",
"g. c #DBB54E",
"h. c #D7B548",
"j. c #C6AF58",
"k. c #CAB25E",
"l. c #DCBB5A",
"z. c #D8BA57",
"x. c #E4BB44",
"c. c #E2BC4B",
"v. c #E1BD57",
"b. c #CDBE6F",
"n. c #EECA4C",
"m. c #E9C447",
"M. c #E5C055",
"N. c #E9C553",
"B. c #E5C15A",
"V. c #E9C559",
"C. c #EECC5B",
"Z. c #D8C46A",
"A. c #D5C776",
"S. c #E6C564",
"D. c #EAC762",
"F. c #EBCB64",
"G. c #EACA6C",
"H. c #E7C96A",
"J. c #EDD16B",
"K. c #F2D163",
"L. c #EACC73",
"P. c #ECCF7D",
"I. c #E1CE72",
"U. c #EDD372",
"Y. c #ECD37B",
"T. c #F2D67A",
"R. c #F5E17C",
"E. c #EDD383",
"W. c #EFD48A",
"Q. c #F2DA85",
"!. c #F2DB8C",
"~. c #F0D788",
"^. c #EFD692",
"/. c #EFD996",
"(. c #F2DC93",
"). c #F1DC9C",
"_. c #F6E58B",
"`. c #F6E29B",
"'. c #F3E293",
"]. c #F1DDA3",
"[. c #F2DFAA",
"{. c #F4E1A5",
"}. c #F3E2AC",
"|. c #F8EAA6",
" X c #F5E5B4",
".X c #F8EDB2",
"XX c #F4E5BB",
"oX c #F8EBBD",
"OX c #F7E8B8",
"+X c #F6E9C4",
"@X c #F9EEC3",
"#X c #F6EBCB",
"$X c #F8EECA",
"%X c #F4E6C0",
"&X c #F9F0C5",
"*X c None",
/* pixels */
"*Xm.6.7.w.e.e.e.w.w.q.7.O.W x 6 f *X*X",
"*Xh.X.6.q.w.w.q.q.q.7.;.Q L g M J Z.*X",
"*Xa.Y o.;.6.6.;.O.O.X.T v l a K o.U.*X",
"*Xp.l v W Q Q Q E T Y J c v T X.r.R.*X",
"*Xu.6 6 l c L T E E E E ..X.:.9.n._.*X",
"*Xu.; ; 4 x Q &.5.4.4.x.m.n.C.C.C._.*X",
"*Xt.- = 6 U 4.K.Q.!.!.(.'.!.Q.U.J.*X*X",
"*XD - - s &.J.`.OXoXoXoXOX.X{.!.T.*X*X",
"*Xi $ ; K 5.Q.OX$X$X$X$X$X+XOX{.`.|.*X",
"*XA # ; K 4.Q..X@X@X&X&X&X&XoXoX.X*X*X",
"*XA $ - J =.J.`..X*X*X*X*X*X*X*X*X*X*X",
"*XA $ - c %.N.T.*X*X*X*X*X*X*X*X*X*X*X",
"*XA $ - l ] 9.K.*X*X*X*X*X*X*X*X*X*X*X",
"u.i & - f W 7.m.*X*X*X*X*X*X*X*X*X*X*X",
"y.y $ $ 7 Y *.4.*X*X*X*X*X*X*X*X*X*X*X",
"y.y $ $ 7 J Q } *X*X*X*X*X*X*X*X*X*X*X",
"y.y $ $ 2 7 m ~ *X*X*X*X*X*X*X*X*X*X*X",
"y.N < $ = - 2 y *X*X*X*X*X*X*X*X*X*X*X",
"t.N 2 - , $ $ u p.b.A.*X*X*X*X*X*X*X*X",
"t.y 2 ; < # $ 4 g m g 8 G *X*X*X*X*X*X",
"G y 1 - < $ < 4 f g 6 = % w s.*X*X*X*X",
"G t = , 1 2 4 7 7 7 4 # o   w *X*X*X*X",
"G t , : f v P m f 4 $ O X X O S *X*X*X",
"H t 4 m %.:.:.@.n 4 % O O # = r *X*X*X",
"S N n >.V.U.K.x.@.g , % & 2 > g p.*X*X",
"F ) >.F.(.).T.m.$.b 2 & 1 4 g n | *X*X",
"} f.D.(.OX}.~.x. .g < % < h b I { A.*X",
"z.H.'.*X*X*X*XZ.) 4 % @ , 8 n R @.I.*X",
"*X*X*X*X*X*X*X*Xd.e X . @ 5 n @.*.J.*X",
"*X*X*X*X*X*X*X*X*Xp + o O 4 P $.8.F.*X",
"*X*X*X*X*X*X*X*X*Xs.9 o @ 4 P *.0.F.*X",
"*X*X*X*X*X*X*X*X*X*Xq @ # 5 U :.x.J.*X",
"*X*X*X*X*X*X*X*X*X*Xy $ , 8 U 0.x.J.*X",
"*X*X*X*X*X*X*X*X*X*XC 4 1 8 _ 0.N.Y.*X",
"*X*X*X*X*X*X*X*X*Xj.^ 8 4 k [ x.D.Q.*X",
"*X*X*X*X*X*X*X*X*Xg.` z h m >.M.L.'.*X",
"*X*X*X*X*X*X*X*X*Xx.@.n k / 1.S.E.|.*X",
"z.l.*X*X*X*X*X*XU.c.#.^ n @.c.P.^.|.*X",
"_ [ f.G.Q.'.'.P.D.c.#.Z / <.F.^.]..X*X",
"^ ( @.:.x.V.G.G.V.1._ / #.l.W.]. X*X*X",
"V Z ' *.0.c.v.v.h.@.( ' h.P.[.XX+X*X*X",
"N V Z #.2.1.1.2.#._ ' 1.G.].%X+X@X*X*X",
"1 5 j Z ( [ @.' ' #.1.S.).XX#X#X*X*X*X",
"0 3 < 5 k Z ( #.2.c.L./.XX+X#X$X*X*X*X",
"0 9 % 1 k _ f.z.L.W.[.%X+X#X#X*X*X*X*X",
"0 * < k [ g.L.^.[.XX+X#X#X#X$X*X*X*X*X",
"q r Z #.v.E.[.%X#X#X#X#X#X$X*X*X*X*X*X",
"V Z 2.S.^. X#X#X#X#X#X#X$X*X*X*X*X*X*X",
"k.v.G.(.XX+X#X#X#X#X#X$X*X*X*X*X*X*X*X",
"*X*X^. X%X#X#X#X#X#X*X*X*X*X*X*X*X*X*X"
};
