/* XPM */
static const char *six[] = {
/* columns rows colors chars-per-pixel */
"20 50 207 2 ",
"   c #382B08",
".  c #3E310B",
"X  c #43350C",
"o  c #46380E",
"O  c #4D3D0E",
"+  c #4C3A03",
"@  c #4D3D10",
"#  c #443815",
"$  c #503F10",
"%  c #5D490C",
"&  c #58450D",
"*  c #564412",
"=  c #594711",
"-  c #5C4A13",
";  c #57481C",
":  c #624D0F",
">  c #6F560C",
",  c #624E13",
"<  c #655113",
"1  c #6B5513",
"2  c #65541C",
"3  c #6A571B",
"4  c #6E5A1D",
"5  c #6F5816",
"6  c #735C13",
"7  c #785F15",
"8  c #765D18",
"9  c #7E620A",
"0  c #7D6313",
"q  c #7E641A",
"w  c #5B4E24",
"e  c #574C25",
"r  c #5E5328",
"t  c #62582F",
"y  c #6D5C21",
"u  c #725F22",
"i  c #695E31",
"p  c #776427",
"a  c #79672D",
"s  c #796729",
"d  c #6D6339",
"f  c #786D3E",
"g  c #74693A",
"h  c #766E44",
"j  c #7C7344",
"k  c #856A0F",
"l  c #87690D",
"z  c #8E710F",
"x  c #9A7B0E",
"c  c #816716",
"v  c #836914",
"b  c #8A6E14",
"n  c #856A18",
"m  c #896E1A",
"M  c #80651B",
"N  c #8D7211",
"B  c #8F721A",
"V  c #927514",
"C  c #9B7C14",
"Z  c #94761C",
"A  c #977A1B",
"S  c #9C7C1C",
"D  c #967816",
"F  c #A17C0A",
"G  c #816D28",
"H  c #937927",
"J  c #967D2B",
"K  c #897736",
"L  c #937C33",
"P  c #877A43",
"I  c #9F8114",
"U  c #9E801D",
"Y  c #AB880F",
"T  c #A38313",
"R  c #AE8C15",
"E  c #A4841A",
"W  c #A9871D",
"Q  c #AD8A1D",
"!  c #A78816",
"~  c #B38F15",
"^  c #B48F1E",
"/  c #B88F1C",
"(  c #B5911D",
")  c #BA941C",
"_  c #BB9716",
"`  c #9E8027",
"'  c #9B863B",
"]  c #A48423",
"[  c #AC8922",
"{  c #AD8F29",
"}  c #B38D23",
"|  c #B59123",
" . c #BB9523",
".. c #BB9925",
"X. c #B2922B",
"o. c #BD982E",
"O. c #A18A38",
"+. c #AD943A",
"@. c #BB9D3A",
"#. c #B49634",
"$. c #BBA03E",
"%. c #C49D1D",
"&. c #C9A21E",
"*. c #C7A11D",
"=. c #D0A81E",
"-. c #C39B23",
";. c #C39E2A",
":. c #C09726",
">. c #C39E36",
",. c #CDA422",
"<. c #CFAA28",
"1. c #D4AA23",
"2. c #DAAE25",
"3. c #D3AA2A",
"4. c #DCAF2B",
"5. c #D1A425",
"6. c #DEB321",
"7. c #DDB52F",
"8. c #CCA73B",
"9. c #C9A836",
"0. c #D3AC32",
"q. c #D5AE39",
"w. c #DBB334",
"e. c #DBB23C",
"r. c #D4B23D",
"t. c #E4B729",
"y. c #E4BA34",
"u. c #E8BD3C",
"i. c #E8C03D",
"p. c #998745",
"a. c #878154",
"s. c #9D9155",
"d. c #988E59",
"f. c #A28C43",
"g. c #AA9543",
"h. c #AA964D",
"j. c #B59B41",
"k. c #A79857",
"l. c #B09E52",
"z. c #BEA447",
"x. c #BEA651",
"c. c #9D9868",
"v. c #A29C69",
"b. c #BEAE64",
"n. c #CCAD48",
"m. c #D4AF44",
"M. c #C9B04E",
"N. c #D6B144",
"B. c #DEB943",
"V. c #DCBD48",
"C. c #C2AE5A",
"Z. c #DCBC54",
"A. c #CBB555",
"S. c #E3BE4B",
"D. c #E4BF55",
"F. c #CFBB64",
"G. c #C7B768",
"H. c #DDC15C",
"J. c #E6C24A",
"K. c #E9C44A",
"L. c #E9C648",
"P. c #F1CA4B",
"I. c #E9C653",
"U. c #E5C25C",
"Y. c #ECCB5D",
"T. c #EAC756",
"R. c #F2CD57",
"E. c #D4C26C",
"W. c #D7C368",
"Q. c #D6C674",
"!. c #EBCC64",
"~. c #E7C76D",
"^. c #ECCC69",
"/. c #E5C466",
"(. c #EDD16F",
"). c #EACD77",
"_. c #EDD275",
"`. c #EED37D",
"'. c #F4DB7E",
"]. c #F1D676",
"[. c #EACF80",
"{. c #EFD586",
"}. c #EDD58D",
"|. c #F4DC8B",
" X c #EFD99B",
".X c #EFDA93",
"XX c #F4DD92",
"oX c #F1DA9E",
"OX c #F6E097",
"+X c #EED9A0",
"@X c #F2DFAB",
"#X c #F1DDA3",
"$X c #F6E4A3",
"%X c #F4E4AE",
"&X c #F7EBAF",
"*X c #F4E5BD",
"=X c #F6E8B9",
"-X c #F8EDBD",
";X c #F6E9B4",
":X c #F9F2B9",
">X c #F6E9C2",
",X c #F8EDC4",
"<X c #F6EBCB",
"1X c #F7EBC5",
"2X c #FAF2C7",
"3X c #F8F0C8",
"4X c None",
/* pixels */
"4X4X4X4X4X4X4XP.i.6.%.Y I I _ 4X4X4X4X4X",
"4X4X4X4X4X4X4Xi.6.*.Y T Y _ r.4X4X4X4X4X",
"4X4X4X4X4X4XV.=._ ! I ~ <.L.'.4X4X4X4X4X",
"4X4X4X4X4X4X9.~ I I ~ 0.Y.|.4X4X4X4X4X4X",
"4X4X4X4X4X4X..C N I <.Y.OX-X4X4X4X4X4X4X",
"4X4X4X4X4XW.W z N ( J.|.=X2X4X4X4X4X4X4X",
"4X4X4X4X4X$.C k x ,.^.$X,X4X4X4X4X4X4X4X",
"4X4X4X4X4X{ V k Y y.'.=X2X4X4X4X4X4X4X4X",
"4X4X4X4XW.E N k _ P.|.:X2X4X4X4X4X4X4X4X",
"4X4X4X4XA.C b V ..Y.$X2X4X4X4X4X4X4X4X4X",
"4X4X4X4X$.z k I q.`.&X-X4X4X4X4X4X4X4X4X",
"4X4X4X4X] k k _ V.|.&X:X4X4X4X4X4X4X4X4X",
"4X4X4Xx.A 9 N *.R.|.XX4X4X4X4X4X4X4X4X4X",
"4X4X4Xj.N 0 D <.R._._.4X4X4X4X4X4X4X4X4X",
"4X4X4X+.k v U 0.L.I.H.4X4X4X4X4X4X4X4X4X",
"4X4X4X] 9 v Q w.y.S.4X4X4X4X4X4X4X4X4X4X",
"4X4XC.Z 9 b ) 4.2.r.4X4X4X4X4X4X4X4X4X4X",
"4X4X+.b 0 D %.t.<.z.4XF.z.g.s.4X4X4X4X4X",
"4X4XO.k 0 A =.t.9.+.h.X.F l : j 4X4X4X4X",
"4XQ.H 0 0 W =.t.8.l.g.{ I 9 & * j 4X4X4X",
"4XG.B 7 v ( 2.=.M.4XO.` A 7 % + 2 4X4X4X",
"4Xb.0 6 b ..2.&.F.4XO.V N 5 - % 0 p.4X4X",
"4Xl.0 6 B %.2...G.4X` 0 0 1 < 6 q ` 4X4X",
"4X' 6 6 A %.<.X.h.k.s > 1 : 1 c V ] E.4X",
"h.K > 6 U &.6.@.s.P 3 & & % 6 B E ( W.4X",
"p.G < 0 W 3.w.n.O.u & O $ = 7 C ) %.Z.4X",
"' a < 0 ( 7.I.U.C.K , O O & 6 J -.5.Z.4X",
"K p < q ) u.!._.4X4XP * o O 1 A %.2.K.4X",
"K p < c -.L.!.|.4X4X4Xf X X , B  .4.J.4X",
"p 4 , n -.u.^.4X4X4X4Xv.# . = n  .4.K.!.",
"s 3 , n :.y.Y.4X4X4X4X4Xe X & c } w.K.^.",
"p 2 , n ..t.I.4X4X4X4X4Xi @ & 0 | w.T._.",
"y 2 - q } 2.S.4X4X4X4X4Xg * - c } e.!.`.",
"2 - = 8 [ =.u.4X4X4X4X4XK , , n  .S.^.`.",
"w * * 6 H / 8.4X4X4X4X4XK 1 1 V ;.S._.4X",
"w ; $ , m C #.4X4X4X4X4XL 8 5 S 0.T.{.4X",
"t * O = 8 0 H 4X4X4X4X4X` q q ] e.^.XX4X",
"t ; O O - : 4 s.4X4X4XQ.] m m X.S.`.#X4X",
"i w # o O O * a 4X4X4XD.} B S >./..X&X4X",
"h r o o @ X O 4 G.4X].e.} Z W m.).#X:X4X",
"4Xt X X # o $ 8 #.S.S.q.} S ;.D. X%X4X4X",
"4Xd   X o # , M W 5.0.:.[ } N.{.@X>X4X4X",
"4Xa.    X @ , M S :.:.} :.q.~.#X>X1X4X4X",
"4Xc.# X $ $ , M H S } ;.q.~.oX*X3X4X4X4X",
"4X4Xr $ : 5 M Z } ;.8.D.).oX*X<X3X4X4X4X",
"4X4Xd.y 7 H [ >.m.D.~.}.@X*X1X<X4X4X4X4X",
"4X4X4Xp.S :.N.D.). X@X*X1X<X<X<X4X4X4X4X",
"4X4X4X4X8.e.D.{.@X>X<X<X<X<X<X4X4X4X4X4X",
"4X4X4X4X4X_.). X*X<X<X<X<X3X4X4X4X4X4X4X",
"4X4X4X4X4X4X}.+X*X<X<X<X4X4X4X4X4X4X4X4X"
};
