/* XPM */
static const char *seven[] = {
/* columns rows colors chars-per-pixel */
"17 50 175 2 ",
"   c #5A4709",
".  c #644F0A",
"X  c #66510D",
"o  c #765E0E",
"O  c #645214",
"+  c #6E5B15",
"@  c #735C13",
"#  c #795E16",
"$  c #765E19",
"%  c #7B620E",
"&  c #7C6314",
"*  c #7D6319",
"=  c #83660E",
"-  c #816613",
";  c #856913",
":  c #8A6E14",
">  c #816619",
",  c #846919",
"<  c #8A6E1B",
"1  c #8D7114",
"2  c #8E721D",
"3  c #927413",
"4  c #957815",
"5  c #9A7C14",
"6  c #92731A",
"7  c #95781B",
"8  c #9D7C1D",
"9  c #8D762E",
"0  c #937620",
"q  c #967823",
"w  c #9B7D23",
"e  c #9B7F29",
"r  c #927B2B",
"t  c #907E3C",
"y  c #A38215",
"u  c #A98716",
"i  c #AC8B17",
"p  c #A3831B",
"a  c #AD8B1B",
"s  c #B38F15",
"d  c #BA9516",
"f  c #B5921B",
"g  c #B9961A",
"h  c #BE991B",
"j  c #B49014",
"k  c #9F8120",
"l  c #96843E",
"z  c #A38322",
"x  c #A98720",
"c  c #A1852C",
"v  c #A7892A",
"b  c #AC8B23",
"n  c #B48F20",
"m  c #BE9A21",
"M  c #BD992D",
"N  c #B69226",
"B  c #A48731",
"V  c #A98D33",
"C  c #A08638",
"Z  c #AB9037",
"A  c #AF933B",
"S  c #B7973A",
"D  c #C39D1B",
"F  c #CCA61C",
"G  c #D6AD1E",
"H  c #C29C2B",
"J  c #C69F32",
"K  c #C5A025",
"L  c #CCA523",
"P  c #CFA926",
"I  c #CBA32D",
"U  c #CDA82A",
"Y  c #D7AD21",
"T  c #D8AF21",
"R  c #D6AD29",
"E  c #DBB222",
"W  c #DDB52D",
"Q  c #C7A032",
"!  c #CFA936",
"~  c #C8A53C",
"^  c #D0AD31",
"/  c #D1AC3D",
"(  c #D8AF3D",
")  c #D5B23A",
"_  c #DAB43B",
"`  c #DCB83A",
"'  c #D7B136",
"]  c #E3BB2C",
"[  c #EABF29",
"{  c #E6BD33",
"}  c #E2BA3C",
"|  c #EBC12F",
" . c #EAC234",
".. c #EAC239",
"X. c #928140",
"o. c #AD9643",
"O. c #B09741",
"+. c #B39841",
"@. c #B29E4F",
"#. c #AD9D58",
"$. c #BAA24A",
"%. c #BDA753",
"&. c #CDA944",
"*. c #D7B34C",
"=. c #DDB94A",
"-. c #C2AD57",
";. c #C5B25D",
":. c #DCBA50",
">. c #DEBC5C",
",. c #E4BD44",
"<. c #E2BD4D",
"1. c #E2BF57",
"2. c #E4BF58",
"3. c #C5B466",
"4. c #E6C441",
"5. c #ECC543",
"6. c #E6C44D",
"7. c #EBC64A",
"8. c #ECC84C",
"9. c #E8C356",
"0. c #EDCA54",
"q. c #E5C25B",
"w. c #EBC959",
"e. c #EAC65C",
"r. c #F0CE5A",
"t. c #D2C372",
"y. c #E5C463",
"u. c #ECCB62",
"i. c #EAC769",
"p. c #ECCC6E",
"a. c #E6C56B",
"s. c #EED163",
"d. c #EED16B",
"f. c #F5D467",
"g. c #F1D16A",
"h. c #EACE76",
"j. c #EDCD78",
"k. c #EED172",
"l. c #EED27C",
"z. c #F1D57D",
"x. c #F4D879",
"c. c #F1D572",
"v. c #ECCF82",
"b. c #EDD387",
"n. c #EFD48A",
"m. c #F0D581",
"M. c #F1D883",
"N. c #F0D589",
"B. c #F3DB8A",
"V. c #EFD796",
"C. c #EFD897",
"Z. c #EFD99D",
"A. c #F0D693",
"S. c #F2DA94",
"D. c #F2DD9B",
"F. c #F4E091",
"G. c #F5E098",
"H. c #EFDAA4",
"J. c #F2DDA3",
"K. c #F1DFAC",
"L. c #F4E1A4",
"P. c #F4E4AC",
"I. c #F9E7AD",
"U. c #F7E9AF",
"Y. c #F4E5B4",
"T. c #F6E9B2",
"R. c #F9EEB6",
"E. c #F5EBB8",
"W. c #F8EDBA",
"Q. c #F3E4B9",
"!. c #F9F0B2",
"~. c #F4E7C2",
"^. c #F5E9C5",
"/. c #F6EACA",
"(. c None",
/* pixels */
"{ { ...... . .......| | G d y % & ",
"P R ] | |  .| | | | | E F y 1 1 y ",
"p f F Y E T T T E E G g y : : y f ",
", 1 y i f d d g g f i y : 1 y F W ",
"+ + % : y j d d f y 4 ; 1 u L  ...",
"O . o y h ^ ' ) U g p y i F | 5.8.",
"O + 5 L 6.d.z.k.8.W D j D E ..5.8.",
"& y R w.B.U.U.G.d. .D i g T ..5.8.",
"j U w.B.T.Q.G.k.,.K p : 5 h W 5.8.",
"..s.F.T.W.T.F.s.) z @ X & a W 8.0.",
"(.(.(.(.(.(.(.(.(.l O   % i ` r.d.",
"(.(.(.(.(.(.(.(.(.l + X % f 6.k.M.",
"(.(.(.(.(.(.(.(.(.r & o 3 F w.B.G.",
"(.(.(.(.(.(.(.(.t.7 = & 5 W g.G.L.",
"(.(.(.(.(.(.(.(.t.3 & - i } x.L.U.",
"(.(.(.(.(.(.(.(.;.1 % ; n 6.B.U.E.",
"(.(.(.(.(.(.(.(.A : % 3 Q i.D.T.(.",
"(.(.(.(.(.(.(.(.c ; & 5 ^ k.G.R.(.",
"(.(.(.(.(.(.(.;.k ; & u _ l.L.R.(.",
"(.(.(.(.(.(.(.-.7 ; ; s } l.D.!.(.",
"(.(.(.(.(.(.(.$.: & : h 7.m.D.(.(.",
"(.(.(.(.(.(.(.V = & 3 I w.B.L.(.(.",
"(.(.(.(.(.(.(.w % & 8 / k.J.T.(.(.",
"(.(.(.(.(.(.$.2 @ - a :.N.P.R.(.(.",
"(.(.(.(.(.(.o.< @ : m 2.S.Q.(.(.(.",
"(.(.(.(.(.(.Z : # 3 L u.S.T.(.(.(.",
"(.(.(.(.(.(.v : & 4 R u.S.P.(.(.(.",
"(.(.(.(.(.t.k ; - p ' g.S.L.(.(.(.",
"(.(.(.(.(.%.7 & , b =.z.Z.U.(.(.(.",
"(.(.(.(.(.V < & < M y.S.P.(.(.(.(.",
"(.(.(.(.(.e ; # 5 ! h.J.T.(.(.(.(.",
"(.(.(.(.3.0 * & p _ l.L.R.(.(.(.(.",
"(.(.(.(.-.< # # a } j.J.T.(.(.(.(.",
"(.(.(.(.-.: # > n ,.z.D.(.(.(.(.(.",
"(.(.(.(.+., # < H 2.N.J.(.(.(.(.(.",
"(.(.(.(.e , # 7 J j.D.K.(.(.(.(.(.",
"(.(.(.$.q > > a *.b.P.E.(.(.(.(.(.",
"(.(.(.+.2 * : N 1.V.Y.(.(.(.(.(.(.",
"(.(.(.Z : # < H e.V.Y.(.(.(.(.(.(.",
"(.(.(.V ; * 6 ! u.V.L.(.(.(.(.(.(.",
"(.(.(.e > * w &.p.V.J.(.(.(.(.(.(.",
"(.(.S 0 * > x *.j.Z.L.(.(.(.(.(.(.",
"(.(.B < # , N >.N.J.(.(.(.(.(.(.(.",
"(.(.q > $ 6 J a.Z.P.(.(.(.(.(.(.(.",
"(.3., $ $ 8 ( j.Z.P.(.(.(.(.(.(.(.",
"(.#.+ $ 6 H 2.N.H.T.(.(.(.(.(.(.(.",
"(.t # 2 H :.b.H.K.Y.(.(.(.(.(.(.(.",
"(.9 8 J q.b.J.Q.Q.(.(.(.(.(.(.(.(.",
"C S &.i.S.Q.~.~.~.(.(.(.(.(.(.(.(.",
"S &.y.V.Q.~./././.(.(.(.(.(.(.(.(."
};
