/* XPM */
static const char *eight[]= {
/* columns rows colors chars-per-pixel */
"20 50 207 2 ",
"   c #3A2D03",
".  c #392C07",
"X  c #3F3209",
"o  c #433405",
"O  c #4D3C05",
"+  c #43340B",
"@  c #47380C",
"#  c #4C3C0C",
"$  c #513F0E",
"%  c #4B3D10",
"&  c #453A17",
"*  c #54420C",
"=  c #59460D",
"-  c #5D4A0D",
";  c #594503",
":  c #4F4113",
">  c #524311",
",  c #5D4B13",
"<  c #554718",
"1  c #634D0D",
"2  c #69530B",
"3  c #6E570B",
"4  c #745A0A",
"5  c #795F0A",
"6  c #624E12",
"7  c #645013",
"8  c #6A5513",
"9  c #6D591C",
"0  c #735C13",
"q  c #755D19",
"w  c #785E14",
"e  c #776012",
"r  c #7C6413",
"t  c #75601B",
"y  c #78611A",
"u  c #584E28",
"i  c #5C5124",
"p  c #6A5924",
"a  c #665A29",
"s  c #725F23",
"d  c #675F37",
"f  c #79682D",
"g  c #776421",
"h  c #786D39",
"j  c #7F784D",
"k  c #8E710F",
"l  c #997B0F",
"z  c #816615",
"x  c #836A13",
"c  c #8B6F14",
"v  c #846A1A",
"b  c #8B6E1B",
"n  c #816719",
"m  c #8D7214",
"M  c #8F7219",
"N  c #927415",
"B  c #967914",
"V  c #9C7D14",
"C  c #93751A",
"Z  c #9B7B1C",
"A  c #86690E",
"S  c #A17F16",
"D  c #A17F1A",
"F  c #836F2A",
"G  c #8B7327",
"H  c #927520",
"J  c #957A23",
"K  c #9A7E20",
"L  c #977E2C",
"P  c #897634",
"I  c #867533",
"U  c #A27F21",
"Y  c #8B7D44",
"T  c #857C4A",
"R  c #A48416",
"E  c #AB8815",
"W  c #A5841C",
"Q  c #AC891B",
"!  c #AA871B",
"~  c #B18D14",
"^  c #B18E1D",
"/  c #BE9813",
"(  c #B6921C",
")  c #BB9619",
"_  c #B89317",
"`  c #978133",
"'  c #A98723",
"]  c #AD8924",
"[  c #A68625",
"{  c #B18D23",
"}  c #B79125",
"|  c #BB9523",
" . c #BE9A24",
".. c #BB972A",
"X. c #BC992C",
"o. c #A68C38",
"O. c #B89935",
"+. c #C19B1C",
"@. c #C39C17",
"#. c #C8A21D",
"$. c #C4A01D",
"%. c #D3A91B",
"&. c #D1A61B",
"*. c #C49E23",
"=. c #C49C2A",
"-. c #CCA424",
";. c #CDA42B",
":. c #CBA52C",
">. c #D9AF22",
",. c #D2AB2A",
"<. c #DEB52B",
"1. c #DDB323",
"2. c #C5A134",
"3. c #CBA63B",
"4. c #CFAE3C",
"5. c #CAA535",
"6. c #D2AA33",
"7. c #D4AB38",
"8. c #CFB03F",
"9. c #DCB332",
"0. c #D9B33C",
"q. c #E3BA2B",
"w. c #E3BC34",
"e. c #E3BB3D",
"r. c #E9C23E",
"t. c #8C814B",
"y. c #91854C",
"u. c #94884B",
"i. c #9E8F50",
"p. c #968C57",
"a. c #9A925D",
"s. c #A39043",
"d. c #AA9E5C",
"f. c #B09E55",
"g. c #BBA757",
"h. c #9D9765",
"j. c #B5AA68",
"k. c #BFB36C",
"l. c #ACA267",
"z. c #C9AE4C",
"x. c #CDA941",
"c. c #D5AD41",
"v. c #DCB84C",
"b. c #D9B547",
"n. c #CBAF51",
"m. c #CDB457",
"M. c #DCB952",
"N. c #E5BE47",
"B. c #E3BE54",
"V. c #D1BD67",
"C. c #C7BB74",
"Z. c #C4B263",
"A. c #E6C24D",
"S. c #EAC54A",
"D. c #EDC94C",
"F. c #EDC645",
"G. c #F0C844",
"H. c #E6C355",
"J. c #EAC755",
"K. c #EDCC53",
"L. c #E7C45C",
"P. c #EBC85A",
"I. c #F1D25B",
"U. c #DBC76E",
"Y. c #DFCD74",
"T. c #E8C765",
"R. c #ECCC63",
"E. c #E7C969",
"W. c #F0CF6A",
"Q. c #EDD26C",
"!. c #EAD068",
"~. c #F1D468",
"^. c #EBCC74",
"/. c #E9CD7A",
"(. c #EDD172",
"). c #EED37A",
"_. c #EEDA7A",
"`. c #F2D473",
"'. c #F1D67B",
"]. c #F4D87A",
"[. c #F4DB75",
"{. c #EFD382",
"}. c #EDD58C",
"|. c #F4DB85",
" X c #F2D98E",
".X c #EFD898",
"XX c #F3DD94",
"oX c #F1DC9C",
"OX c #F5E389",
"+X c #F7E594",
"@X c #F8E59C",
"#X c #EFDCA3",
"$X c #F1DDA3",
"%X c #F3DFAA",
"&X c #F5E3A2",
"*X c #F3E2AC",
"=X c #F8EBA4",
"-X c #F7EDB7",
";X c #F4E5BD",
":X c #F9EFB0",
">X c #F9F2BD",
",X c #F6EAC6",
"<X c #F6EBCC",
"1X c #F4E7C0",
"2X c #F9F2C7",
"3X c #F9F1C8",
"4X c None",
/* pixels */
"4X4X4X4X4X4X4X4X~.D.r./ k f 4X4X4X4X4X4X",
"4X4X4X4X4X4X+X'.!.F.1.~ r 0 h 4X4X4X4X4X",
"4X4X4X4X4XOX~.K.D.w.$.R 4 *   i 4X4X4X4X",
"4X4X4X4X4XF.r.r.1.$.R r 2 : o * h 4X4X4X",
"4X4X4X4XK.1.>.$./ ~ R r 2 = = ; y 4X4X4X",
"4X4X4X4X,./ ~ E ) $. .Q m e 3 4 x s.4X4X",
"4X4X4Xz.E R R ( 9.F.S.9.) B c m R [ 4X4X",
"4X4X4Xo.k A R 6.R.OX[.F.&.R m R E } Y.4X",
"4X4X4X` 5 k ) H.OX&X).e./ B m R ) $.Q.4X",
"4X4X4Xb 2 l ,.Q.&X@X[.8.R e r B ) %.Q.4X",
"4X4Xd.t 3 R 9.[.+X@X4X4XF - 1 x ~ %.~.4X",
"4X4Xi.8 3 R r.[.XX4X4X4Xa.> O e E %.I.4X",
"4X4Xy.7 2 R <.I.OX4X4X4X4X< O 4 R >.I.4X",
"4X4Xy., 1 R >.F.OX4X4X4X4Xp O 5 ~ <.~.4X",
"4X4Xy., - m $.9._.4X4X4X4Xf ; r ( 9.[.4X",
"4X4Xt.> ; r R ..Y.4X4X4X4XI 2 m ) S.OX4X",
"4X4Xt.: * 7 r C U.4X4X4X4XJ 4 V ,.J.+X4X",
"4X4Xa.:   = 1 7 l.4X4X4XV.Z A E 9.~.=X4X",
"4X4X4X<   @ @ * t.4X4X4X3.Z V  .H.|.:X4X",
"4X4X4Xi   X + * g g.4XQ. .R ^ 4.(.&X4X4X",
"4X4X4Xd X X @ = t [ 4.,.^ ! -.P.oX-X4X4X",
"4X4X4Xj & . # , r R E ! R } b.`.&X4X4X4X",
"4X4X4X4Xa X : 7 r M B M R -.A.(.XX4X4X4X",
"4X4X4X4Xa., * 6 0 r r r Z *.9.P.|.4X4X4X",
"4X4X4X4X4XP 0 7 8 w r v C W { n.4X4X4X4X",
"4X4X4X4X4Xo.r 0 x S Q W M z 0 P 4X4X4X4X",
"4X4X4X4X4.W C Z ..9.q. .M 7 $ # a 4X4X4X",
"4X4X4Xv.( R W 2.H.W.P.6.C , @ o * t.4X4X",
"4X4X4X..V W =.H.|. XT.5.M , % * 6 g C.4X",
"4X4Xg.K b ^ e.'.$X+X(.O.r , # , 0 c Z.4X",
"4X4Xo.n b ..L.XX&X4X4Xk.g # # 6 x Z n.4X",
"4XC.G w N 2.T. X&X4X4X4XT % o 7 b } c.4X",
"4XZ.y 0 M 2.H.'.4X4X4X4X4X<   7 b *.b.4X",
"4Xj.8 7 b =.B.W.4X4X4X4X4Xa o 7 Z *.N.T.",
"4Xd.6 6 n { 7.T.4X4X4X4X4Xf * 8 Z =.S.!.",
"4Xi.1 1 q Z X.m.4X4X4X4X4XP 1 w Z 6.J.(.",
"4Xy.- = 7 r J f.4X4X4X4X4XL 4 n ' 0.T.).",
"4XY > $ , 6 8 Y 4X4X4X4XU.[ z b ..M.).4X",
"4XY $ # % # > p l.4X4X4Xb.] M D 6.T.XX4X",
"4Xp.# # % % % 6 ` 4X4X`.7.] Z { v.).*X4X",
"4Xa.+ + % % $ 7 L 3.B.N.;.] ! 5.E.oX-X4X",
"4Xh.& . % $ , n Z ..6.;.} U } B.}.*X>X4X",
"4X4X& + + $ , q H ' } ] ] } c.^.$X;X4X4X",
"4X4Xu & + $ , 9 b K U ] =.c.E.oX;X,X4X4X",
"4X4XT % $ 6 q G U } =.3.M./..X;X<X2X4X4X",
"4X4X4Xs 1 b U =.x.B.B.^.}.%X;X<X<X4X4X4X",
"4X4X4Xa.G U 7.B./..X$X%X;X,X<X<X3X4X4X4X",
"4X4X4X4Xn.;.B.{.$X;X,X<X<X<X<X<X4X4X4X4X",
"4X4X4X4X4X^./.oX;X<X<X<X<X<X3X4X4X4X4X4X",
"4X4X4X4X4X4X}.$X1X<X<X<X<X4X4X4X4X4X4X4X"
};
