/* XPM */
static const char *nine[] = {
/* columns rows colors chars-per-pixel */
"20 50 206 2 ",
"   c #3A2E07",
".  c #3E3207",
"X  c #4C3C06",
"o  c #42340A",
"O  c #4B3C0B",
"+  c #443507",
"@  c #503F0D",
"#  c #52420D",
"$  c #58460A",
"%  c #5B490D",
"&  c #534106",
"*  c #4F4317",
"=  c #524314",
"-  c #5B4B15",
";  c #5A4C1B",
":  c #584715",
">  c #624E0D",
",  c #634E07",
"<  c #65510E",
"1  c #6A540D",
"2  c #6E590F",
"3  c #735C0E",
"4  c #795E0F",
"5  c #604D10",
"6  c #645214",
"7  c #6B5512",
"8  c #6D5915",
"9  c #62531C",
"0  c #6C591A",
"q  c #745D12",
"w  c #745E18",
"e  c #7A620E",
"r  c #776014",
"t  c #7C6313",
"y  c #7B631A",
"u  c #77641F",
"i  c #574C22",
"p  c #5B522A",
"a  c #655725",
"s  c #685F33",
"d  c #736224",
"f  c #7F6B25",
"g  c #6D6439",
"h  c #71693F",
"j  c #7C7649",
"k  c #82670E",
"l  c #8B6E0F",
"z  c #85670A",
"x  c #816716",
"c  c #856A14",
"v  c #896D13",
"b  c #856A1A",
"n  c #8B6E1B",
"m  c #8D701B",
"M  c #8B7011",
"N  c #927415",
"B  c #967813",
"V  c #9A7C14",
"C  c #93741A",
"Z  c #96781B",
"A  c #9C7C1C",
"S  c #A27E1F",
"D  c #846D23",
"F  c #8B7428",
"G  c #9D7E21",
"H  c #917A2C",
"J  c #887636",
"K  c #917E34",
"L  c #A07F21",
"P  c #847B4A",
"I  c #8C7E44",
"U  c #9F8018",
"Y  c #A38215",
"T  c #AC8915",
"R  c #A48319",
"E  c #A9871A",
"W  c #AC8A1D",
"Q  c #A88512",
"!  c #B38F16",
"~  c #B18D1E",
"^  c #BD9816",
"/  c #B6921B",
"(  c #B9951B",
")  c #BA9517",
"_  c #9C822B",
"`  c #9B8432",
"'  c #9B8539",
"]  c #A38323",
"[  c #AA8725",
"{  c #AC8A27",
"}  c #B18B23",
"|  c #B69326",
" . c #BC962B",
".. c #BC9927",
"X. c #A9913F",
"o. c #B39333",
"O. c #BA9A35",
"+. c #C39D1C",
"@. c #C99F1A",
"#. c #C6A01E",
"$. c #CCA318",
"%. c #D5AA1F",
"&. c #C49E25",
"*. c #C69F2A",
"=. c #C49F33",
"-. c #C6A123",
";. c #CCA429",
":. c #D7AD23",
">. c #D3AA2B",
",. c #D9B124",
"<. c #D9B12A",
"1. c #DFB82F",
"2. c #C4A336",
"3. c #CBA535",
"4. c #CEA83C",
"5. c #C9A438",
"6. c #DAAF32",
"7. c #D5AD38",
"8. c #D7B13B",
"9. c #DAB538",
"0. c #E5BA2A",
"q. c #E4BC37",
"w. c #E1BB3E",
"e. c #E9C23D",
"r. c #EBC136",
"t. c #8C834F",
"y. c #9D8D4B",
"u. c #968540",
"i. c #9B8E50",
"p. c #928A55",
"a. c #9C945F",
"s. c #A58F43",
"d. c #A4934E",
"f. c #AA974B",
"g. c #AA9D5C",
"h. c #A49555",
"j. c #B19A48",
"k. c #BBA34B",
"l. c #AFA25F",
"z. c #B4A55D",
"x. c #ABA36B",
"c. c #C9A944",
"v. c #DCB744",
"b. c #D4B24B",
"n. c #DDB74C",
"m. c #DDBA4A",
"M. c #CCB152",
"N. c #D9BA53",
"B. c #E4BD43",
"V. c #E4BE49",
"C. c #E0BE52",
"Z. c #CFBC6B",
"A. c #C9B768",
"S. c #D5BC64",
"D. c #EAC444",
"F. c #EEC74A",
"G. c #EDC94B",
"H. c #EAC554",
"J. c #EDCB52",
"K. c #E6C25C",
"L. c #EDCD5B",
"P. c #E6C455",
"I. c #F0CD54",
"U. c #F0CE5A",
"Y. c #D5C264",
"T. c #D8C770",
"R. c #E5C362",
"E. c #EECD63",
"W. c #EACA6C",
"Q. c #EFD166",
"!. c #EFD26A",
"~. c #E7D06B",
"^. c #EDCE72",
"/. c #EACD7B",
"(. c #E5C670",
"). c #EFD573",
"_. c #EED37C",
"`. c #E4D37A",
"'. c #F0D475",
"]. c #F1D97E",
"[. c #F3D877",
"{. c #EED48A",
"}. c #F4DB83",
"|. c #F1D78C",
" X c #F2DB8C",
".X c #F1D682",
"XX c #EFD792",
"oX c #EFD895",
"OX c #F3DD94",
"+X c #F2DD9D",
"@X c #F3E08F",
"#X c #F3E295",
"$X c #F2DDA3",
"%X c #F5E4A5",
"&X c #F5E3AA",
"*X c #F7EBA7",
"=X c #F3E3B4",
"-X c #F4E5BB",
";X c #F6EABB",
":X c #F6EAB3",
">X c #F9F0BE",
",X c #F5E9C5",
"<X c #F8EEC4",
"1X c #F6EBCA",
"2X c #FAF3C7",
"3X c None",
/* pixels */
"3X3X3X3X3X3X3X].Q.e.,.! n h 3X3X3X3X3X3X",
"3X3X3X3X3X3X}.'.U.e.$.Q t d t.3X3X3X3X3X",
"3X3X3X3X3X!.L.J.e.<.! M < + . j 3X3X3X3X",
"3X3X3X3XL.D.D.0.,.^ B e $ & . = t.3X3X3X",
"3X3X3XJ.0.,.>.#.^ T B r % # & X d 3X3X3X",
"3X3X3X1.$.^ ! ^ #.-.( V r < , % u z.3X3X",
"3X3X9.#.T Y ) ,.e.G.r.#.B r 2 e c ` 3X3X",
"3X3X..U V T <.L.@X].J.>.U e r c B ] 3X3X",
"3XY.U M B -.H.OX%X}.F.#.N 2 8 l U ~ T.3X",
"3Xk.M k Q 8._.*X%X[.9.T 2 $ < c Y ) Y.3X",
"3X' e e ) D. X%X%X3X3X` & O % x Y ) N.3X",
"f.F r M #.J.OXOX3X3X3Xa.* o & t Y ^ m.3X",
"' F 2 M -.J.}.OX3X3X3X3Xp o X q Y #.e.3X",
"` f 8 v -.G.[.3X3X3X3X3Xg O X 8 Y %.e.L.",
"f d 2 M #.r.Q.3X3X3X3X3Xj # & q E %.D.L.",
"f d < c ^ 0.J.3X3X3X3X3Xp.- & q R :.G.Q.",
"d 0 < x ( %.D.3X3X3X3X3Xy.6 $ q E :.G.!.",
"0 6 > e E #.9.3X3X3X3X3Xi.8 % t E <.J.!.",
"9 - : 8 V T 2.3X3X3X3X3Xy.8 , t / 9.L.).",
"9 - # > t l _ 3X3X3X3X3Xu.w 1 v ..9.!.].",
"9 : # $ 6 < w x.3X3X3X3X' w 1 N -.V.[.3X",
"a : # @ # O # g 3X3X3X3X` w 7 V ;.P.].3X",
"a ; O @ O O + * p.3X3XA.H 4 q R ,.L.}.3X",
"s i O O O : 5 7 7 J g.h.D q x W q.E.#X3X",
"g i o O : w Z S z D 3Xg.w q c | V.'.*X3X",
"j p   O 7 G ;.<./ s.3Xl.3 3 N =.K..X*X3X",
"3Xj   O c  .B.D.5.j.3Xy.q q S 3.W.|.*X3X",
"3Xp.  : Z 4.H.F.c.f.h.K q 4 E 8.W.OX3X3X",
"3Xx.: 1 R 8.P.w.N.3Xy.D t x / B._.+X3X3X",
"3X3XI n / w.V.6.~.3Xd.y y n *.H.|.%X3X3X",
"3X3X3XO.;.V.B.3.`.3Xs.4 x Z 4.E.+X:X3X3X",
"3X3X3X3XC.w.6.O.3X3X` 4 x [ b._.%X3X3X3X",
"3X3X3X3X3X!.P.Z.3Xd.F t v | N.{.&X3X3X3X",
"3X3X3X3X3X3X3X3X3X' n y C *.K.XX&X3X3X3X",
"3X3X3X3X3X3X3X3X3XG b x S 7.^.$X:X3X3X3X",
"3X3X3X3X3X3X3X3XZ.G b n { C..X=X;X3X3X3X",
"3X3X3X3X3X3X3X3Xk.Z x C  .(.+X;X3X3X3X3X",
"3X3X3X3X3X3X3X3Xo.C x S 4./.&X<X3X3X3X3X",
"3X3X3X3X3X3X3XS.[ D x W n.{.=X<X3X3X3X3X",
"3X3X3X3X3X3X3XM.L n n  .P.OX=X>X3X3X3X3X",
"3X3X3X3X3X3X3X=.C n G =.^.$X-X3X3X3X3X3X",
"3X3X3X3X3X3X3X{ m b L b.XX-X1X3X3X3X3X3X",
"3X3X3X3X3X3Xc.L b m &.R.$X<X2X3X3X3X3X3X",
"3X3X3X3X3X3Xo.C b Z 3.^.=X1X3X3X3X3X3X3X",
"3X3X3X3X3XZ.[ b D { n.|.-X1X3X3X3X3X3X3X",
"3X3X3X3X3Xs.D b S =.(.$X,X,X3X3X3X3X3X3X",
"3X3X3X3X3XC m S =.C.oX-X,X3X3X3X3X3X3X3X",
"3X3X3X3Xz.C } c.(.oX=X1X2X3X3X3X3X3X3X3X",
"3X3X3X3Xc.O.N./.$X-X,X1X1X3X3X3X3X3X3X3X",
"3X3X3X3X=.n./.$X-X,X,X1X3X3X3X3X3X3X3X3X"
};
