/* XPM */
static const char *cursor_pick2[] = {
/* columns rows colors chars-per-pixel */
"26 27 196 2 ",
"   c #11020F",
".  c #10030F",
"X  c #100410",
"o  c #130410",
"O  c #130610",
"+  c #140612",
"@  c #140915",
"#  c #150915",
"$  c #160A16",
"%  c #160C17",
"&  c #170C17",
"*  c #120D1E",
"=  c #150F1D",
"-  c #160F1D",
";  c #140F1E",
":  c #170F1E",
">  c #190E19",
",  c #1A0E1A",
"<  c #17101E",
"1  c #1C1118",
"2  c #19101C",
"3  c #18111D",
"4  c #1A111C",
"5  c #1B111C",
"6  c #1A121E",
"7  c #1C121D",
"8  c #1D121D",
"9  c #1E131C",
"0  c #1E131D",
"q  c #1D131E",
"w  c #1C131F",
"e  c #1E141E",
"r  c #1E141F",
"t  c #1E151F",
"y  c #2D160A",
"u  c #2A150D",
"i  c #2C160D",
"p  c #2C160F",
"a  c #35190A",
"s  c #391C0D",
"d  c #221213",
"f  c #241313",
"g  c #211216",
"h  c #2B1713",
"j  c #201218",
"k  c #21151E",
"l  c #23161E",
"z  c #29181C",
"x  c #2E1C1F",
"c  c #381E16",
"v  c #371E18",
"b  c #371F1A",
"n  c #321E1E",
"m  c #351F1E",
"M  c #38211D",
"N  c #3F241F",
"B  c #150F20",
"V  c #171020",
"C  c #171122",
"Z  c #191220",
"A  c #181221",
"S  c #1A1220",
"D  c #1B1220",
"F  c #1E1520",
"G  c #201824",
"H  c #201B24",
"J  c #221A25",
"K  c #221B26",
"L  c #261B26",
"P  c #241D28",
"I  c #261F2A",
"U  c #27242F",
"Y  c #27252F",
"T  c #28232D",
"R  c #2A212F",
"E  c #28232E",
"W  c #2B242D",
"Q  c #2D2C36",
"!  c #32333C",
"~  c #32333D",
"^  c #34323C",
"/  c #34343D",
"(  c #36363F",
")  c #3B373F",
"_  c #421F07",
"`  c #43210B",
"'  c #49230A",
"]  c #49250F",
"[  c #50270A",
"{  c #51290F",
"}  c #592C0A",
"|  c #592C0D",
" . c #472516",
".. c #472719",
"X. c #41241D",
"o. c #41251F",
"O. c #41261E",
"+. c #44261F",
"@. c #49291E",
"#. c #4B2A1F",
"$. c #5B2E10",
"%. c #552E1B",
"&. c #572F1A",
"*. c #502D1E",
"=. c #522E1F",
"-. c #5E3013",
";. c #5B3119",
":. c #5D3218",
">. c #5E3218",
",. c #65320F",
"<. c #663514",
"1. c #683615",
"2. c #6B3715",
"3. c #643519",
"4. c #64361A",
"5. c #61341C",
"6. c #61351C",
"7. c #62361F",
"8. c #65381F",
"9. c #69391D",
"0. c #6A391F",
"q. c #4D2D22",
"w. c #5E3421",
"e. c #5F3B29",
"r. c #6B472E",
"t. c #41464F",
"y. c #424B52",
"u. c #444B53",
"i. c #434D55",
"p. c #464E56",
"a. c #4B4B53",
"s. c #495057",
"d. c #4C5056",
"f. c #4D545B",
"g. c #50595F",
"h. c #595A5F",
"j. c #6A695D",
"k. c #5C5665",
"l. c #535960",
"z. c #525C62",
"x. c #525F66",
"c. c #5A6265",
"v. c #5C6166",
"b. c #5D6166",
"n. c #67666A",
"m. c #6E6569",
"M. c #6C666A",
"N. c #736A6C",
"B. c #656278",
"V. c #746E71",
"C. c #726A7C",
"Z. c #6A7272",
"A. c #65777B",
"S. c #6B7578",
"D. c #777C7F",
"F. c #7A7879",
"G. c #7C787A",
"H. c #7B7C7E",
"J. c #7E7C7E",
"K. c #82797B",
"L. c #867E7E",
"P. c #8B7F7F",
"I. c #6A7E82",
"U. c #778282",
"Y. c #7C8086",
"T. c #788688",
"R. c #718C8F",
"E. c #7F8691",
"W. c #769094",
"Q. c #8B8383",
"!. c #8D8484",
"~. c #8C8788",
"^. c #8C8888",
"/. c #8D8C8C",
"(. c #8C8C8D",
"). c #8B8D96",
"_. c #869296",
"`. c #8A9697",
"'. c #8A9797",
"]. c #89999A",
"[. c #8D9A99",
"{. c #949393",
"}. c #989594",
"|. c #999796",
" X c #8AA2A8",
".X c #8CADAE",
"XX c #95A3A5",
"oX c #98AFAF",
"OX c #8EB0B0",
"+X c #8DB6B6",
"@X c #8FB6B6",
"#X c #98B4B4",
"$X c #96BEBD",
"%X c #99BFBE",
"&X c #99C5C3",
"*X c None",
/* pixels */
"*X*X*X*X*X*X*X*X*X*X*X*X*X*X*X*X*X*X*X*X*X*X*X*X*X*X",
"*X*X*X*X*X*X*X7 X W t *X*X*X*X*X*X*X*X*X*X*X*X*X*X*X",
"*X*X*X*X*X*X*X& h.b., *X*X*X*X*X*X*X*X*X*X*X*X*X*X*X",
"*X*X*X*X*X*X8 D.'.f., *X*X*X*X*X*X*X*X*X*X*X*X*X*X*X",
"*X*X*X*X*X*XL |.d.P r *X*X*X*X*X*X*X*X*X*X*X*X*X*X*X",
"*X*X*X*X  / T.P.t.$ *X*X*X*X*X*X*X*X*X*X*X*X*X*X*X*X",
"*X*X*X*Xg.OX{.L.6 *X*X*X*X*X*X*X*X*X*X*X*X*X*X*X*X*X",
"*X*X*Xo %X].M.N.# *X*X*X*X*X*X*X*X*X*X*X*X*X*X*X*X*X",
"*X*X*X. $X(.y.) *X*X*X*X*X*X*X*X*X*X*X*X*X*X*X*X*X*X",
"; *X= a.+XQ.p.G *X*X*X*X*X*X*X*X*X*X*X*X*X*X*X*X*X*X",
"#.M q.XXx.F.s.E > - *X*X*X*X*X*X*X*X*X*X*X*X*X*X*X*X",
"1.5.r.`.Z.S.U.c.^ m : < *X*X*X*X*X*X*X*X*X*X*X*X*X*X",
"y c j.C._.Y.).[.e.:.7.o.X.+.e l *X*X*X*X*X*X*X*X*X*X",
"0 O R. XE.l.k.B. .{ } 4.>.<.0.*.%.=.x m n * e *X*X*X",
"*X*XT &X^.u.H R 1 r p i b ` ' &.$.,.9.;.3.w.O.@.N q ",
"*X*X( @XK.i.J *X*X*XC 9 3 A f g z a s ..[ | 6.-.2.8.",
"*X*XA..Xm.v.@ *X*X*X*X*X*X*XS q V C j 4 k u h v _ ] ",
"*X*Xz.#XH.!.U *X*X*X*X*X*X*X*X*X*X*X*X*X*XZ 9 B w d ",
"*X*X+ I./.G.Q *X*X*X*X*X*X*X*X*X*X*X*X*X*X*X*X*X*XD ",
"*X*X*XY ~.n.F *X*X*X*X*X*X*X*X*X*X*X*X*X*X*X*X*X*X*X",
"*X*X*X% oXJ.2 *X*X*X*X*X*X*X*X*X*X*X*X*X*X*X*X*X*X*X",
"*X*X*XI W.}.~ 5 *X*X*X*X*X*X*X*X*X*X*X*X*X*X*X*X*X*X",
"*X*X*X*X! V.K q *X*X*X*X*X*X*X*X*X*X*X*X*X*X*X*X*X*X",
"*X*X*X*X+ *X*X*X*X*X*X*X*X*X*X*X*X*X*X*X*X*X*X*X*X*X",
"*X*X*X*X*X*X*X*X*X*X*X*X*X*X*X*X*X*X*X*X*X*X*X*X*X*X",
"*X*X*X*X*X*X*X*X*X*X*X*X*X*X*X*X*X*X*X*X*X*X*X*X*X*X",
"*X*X*X*X*X*X*X*X*X*X*X*X*X*X*X*X*X*X*X*X*X*X*X*X*X*X"
};
