/* XPM */
static const char *cursor_pick[] = {
/* columns rows colors chars-per-pixel */
"26 27 9 1 ",
"  c #1D131E",
". c #411E05",
"X c #62351C",
"o c #4A5057",
"O c #726B7E",
"+ c #867E7F",
"@ c #818B8B",
"# c #8AAAAB",
"$ c None",
/* pixels */
"$$$$$$$$$$$$$$$ $$$$$$$$$$",
"$$$$$$$$$$$$$    $$$$$$$$$",
"$$$$$$$$$    +#+o $$$$$$$$",
"$$   $$$ ###++oo  $$$$$$$$",
"$$ XX   ##+++o   $$$$$$$$$",
"$$ .XX+##+o+  $$$$$$$$$$$$",
"$$  .@@o+oo $$$$$$$$$$$$$$",
"$$$ #O@@oo $$$$$$$$$$$$$$$",
"$$$ ##O@@o $$$$$$$$$$$$$$$",
"$$ ##+oO@@  $$$$$$$$$$$$$$",
"$ ##+oo OXX $$$$$$$$$$$$$$",
"$ #+oo   .XX $$$$$$$$$$$$$",
"$ #++ $$  .XX $$$$$$$$$$$$",
"$ ++o$$$$  .XX $$$$$$$$$$$",
" #+o $$$$$  .XX $$$$$$$$$$",
" #+ $$$$$$$  .XX $$$$$$$$$",
" +o $$$$$$$$  .XX $$$$$$$$",
"$   $$$$$$$$$  .XX $$$$$$$",
"$$$$$$$$$$$$$$  .XX $$$$$$",
"$$$$$$$$$$$$$$$  .XX $$$$$",
"$$$$$$$$$$$$$$$$  .XX $$$$",
"$$$$$$$$$$$$$$$$$  .XX $$$",
"$$$$$$$$$$$$$$$$$$  .XX $$",
"$$$$$$$$$$$$$$$$$$$  .XX $",
"$$$$$$$$$$$$$$$$$$$$  .XX ",
"$$$$$$$$$$$$$$$$$$$$$  .  ",
"$$$$$$$$$$$$$$$$$$$$$$   $"
};
