/* XPM */
static const char *slash[] = {
/* columns rows colors chars-per-pixel */
"21 70 137 2 ",
"   c #7C631C",
".  c #846607",
"X  c #876805",
"o  c #8E6E05",
"O  c #82660D",
"+  c #8B6D0E",
"@  c #9B7805",
"#  c #92720D",
"$  c #99770C",
"%  c #97780E",
"&  c #9E7B0C",
"*  c #816514",
"=  c #856914",
"-  c #8C6C13",
";  c #846B1C",
":  c #886E1A",
">  c #906F11",
",  c #8C7014",
"<  c #8C731E",
"1  c #947415",
"2  c #997612",
"3  c #9B7A17",
"4  c #93741B",
"5  c #9C7B1B",
"6  c #A17F11",
"7  c #A37F1E",
"8  c #836B22",
"9  c #857122",
"0  c #8C7222",
"q  c #87732A",
"w  c #8B752B",
"e  c #8F792B",
"r  c #917926",
"t  c #927C2D",
"y  c #897531",
"u  c #8E7A34",
"i  c #917C33",
"p  c #917F3A",
"a  c #A6840E",
"s  c #A9850D",
"d  c #AD880A",
"f  c #A48113",
"g  c #AB8613",
"h  c #AE8914",
"j  c #A7821A",
"k  c #AC881C",
"l  c #B48E15",
"z  c #B08C1E",
"x  c #B99217",
"c  c #BF9914",
"v  c #B6911C",
"b  c #B9941D",
"n  c #BF981F",
"m  c #968235",
"M  c #988435",
"N  c #95833B",
"B  c #A58322",
"V  c #AA8624",
"C  c #AE8A25",
"Z  c #AB8A28",
"A  c #B48E23",
"S  c #B28F2C",
"D  c #BE9720",
"F  c #BD9A23",
"G  c #B9942B",
"H  c #BD9828",
"J  c #B89330",
"K  c #BD9831",
"L  c #C59C1B",
"P  c #C09D26",
"I  c #C89F27",
"U  c #C39C2B",
"Y  c #C29D35",
"T  c #CAA323",
"R  c #C5A12F",
"E  c #CCA72D",
"W  c #D0A827",
"Q  c #D4AE2B",
"!  c #CBA433",
"~  c #C5A03A",
"^  c #CBA63A",
"/  c #CDAA38",
"(  c #D3AE35",
")  c #DBB637",
"_  c #D6B23C",
"`  c #DAB43B",
"'  c #E0BD3D",
"]  c #9F8E43",
"[  c #9B8A48",
"{  c #A3944D",
"}  c #A59556",
"|  c #A79850",
" . c #A79959",
".. c #AD9E5A",
"X. c #AFA159",
"o. c #CCA945",
"O. c #D1AC42",
"+. c #D6B340",
"@. c #D9B545",
"#. c #DDB843",
"$. c #D6B24B",
"%. c #DCB64B",
"&. c #DEBD4D",
"*. c #DDBB54",
"=. c #DEBB5B",
"-. c #E1BD40",
";. c #E0BC49",
":. c #E1BF51",
">. c #E9C546",
",. c #E6C34C",
"<. c #E6C356",
"1. c #EAC956",
"2. c #E4C45D",
"3. c #E8C65F",
"4. c #EBCC5C",
"5. c #F1D25D",
"6. c #E2C162",
"7. c #E8C761",
"8. c #E7C865",
"9. c #E2C569",
"0. c #EACD6D",
"q. c #EED166",
"w. c #EDD169",
"e. c #F2D469",
"r. c #E6C773",
"t. c #EACE74",
"y. c #EDD47E",
"u. c #F0D573",
"i. c #F5DB73",
"p. c #F1D77C",
"a. c #F3DB7E",
"s. c #F7E27D",
"d. c #EDD289",
"f. c #F3DF95",
"g. c #F0DB9E",
"h. c #F7E083",
"j. c None",
/* pixels */
"j.j.j.j.j.j.j.j.j.j.j.j.j.j.j.j.B % f F j.",
"j.j.j.j.j.j.j.j.j.j.j.j.j.j.j.j.B f l / j.",
"j.j.j.j.j.j.j.j.j.j.j.j.j.j.j.j.+ a W 5.j.",
"j.j.j.j.j.j.j.j.j.j.j.j.j.j.j.w . h ' j.j.",
"j.j.j.j.j.j.j.j.j.j.j.j.j.j.j.9 . b <.j.j.",
"j.j.j.j.j.j.j.j.j.j.j.j.j.j.j.< o T 4.j.j.",
"j.j.j.j.j.j.j.j.j.j.j.j.j.j.j.< @ E w.j.j.",
"j.j.j.j.j.j.j.j.j.j.j.j.j.j.X.1 d ) j.j.j.",
"j.j.j.j.j.j.j.j.j.j.j.j.j.j.M % c >.j.j.j.",
"j.j.j.j.j.j.j.j.j.j.j.j.j.j.= @ T 5.j.j.j.",
"j.j.j.j.j.j.j.j.j.j.j.j.j.j.  & ( i.j.j.j.",
"j.j.j.j.j.j.j.j.j.j.j.j.j.N . s #.h.j.j.j.",
"j.j.j.j.j.j.j.j.j.j.j.j.j.N + h &.j.j.j.j.",
"j.j.j.j.j.j.j.j.j.j.j.j.j.M # b <.j.j.j.j.",
"j.j.j.j.j.j.j.j.j.j.j.j.j.m & T q.j.j.j.j.",
"j.j.j.j.j.j.j.j.j.j.j.j.j.< d Q j.j.j.j.j.",
"j.j.j.j.j.j.j.j.j.j.j.j.i , v ` j.j.j.j.j.",
"j.j.j.j.j.j.j.j.j.j.j.j.8 # F 1.j.j.j.j.j.",
"j.j.j.j.j.j.j.j.j.j.j.j.; 2 R w.j.j.j.j.j.",
"j.j.j.j.j.j.j.j.j.j.j.j., f / u.j.j.j.j.j.",
"j.j.j.j.j.j.j.j.j.j.j.X., g +.j.j.j.j.j.j.",
"j.j.j.j.j.j.j.j.j.j.j.| # x ;.j.j.j.j.j.j.",
"j.j.j.j.j.j.j.j.j.j.j.M $ L 1.j.j.j.j.j.j.",
"j.j.j.j.j.j.j.j.j.j.j.; & W e.j.j.j.j.j.j.",
"j.j.j.j.j.j.j.j.j.j.j.= f ` s.j.j.j.j.j.j.",
"j.j.j.j.j.j.j.j.j.j.t + z &.j.j.j.j.j.j.j.",
"j.j.j.j.j.j.j.j.j.j.e # H 3.j.j.j.j.j.j.j.",
"j.j.j.j.j.j.j.j.j.j.r & ! 0.j.j.j.j.j.j.j.",
"j.j.j.j.j.j.j.j.j.j.< d ` a.j.j.j.j.j.j.j.",
"j.j.j.j.j.j.j.j.j.i , x ,.j.j.j.j.j.j.j.j.",
"j.j.j.j.j.j.j.j.j.  , n 1.j.j.j.j.j.j.j.j.",
"j.j.j.j.j.j.j.j.j.8 1 R q.j.j.j.j.j.j.j.j.",
"j.j.j.j.j.j.j.j.j.; 3 ! u.j.j.j.j.j.j.j.j.",
"j.j.j.j.j.j.j.j.{ = j O.a.j.j.j.j.j.j.j.j.",
"j.j.j.j.j.j.j.j.] # A *.j.j.j.j.j.j.j.j.j.",
"j.j.j.j.j.j.j.j.m % T 7.j.j.j.j.j.j.j.j.j.",
"j.j.j.j.j.j.j.j.< f ( u.j.j.j.j.j.j.j.j.j.",
"j.j.j.j.j.j.j.p = k #.j.j.j.j.j.j.j.j.j.j.",
"j.j.j.j.j.j.j.q = A :.j.j.j.j.j.j.j.j.j.j.",
"j.j.j.j.j.j.j.q - G 2.j.j.j.j.j.j.j.j.j.j.",
"j.j.j.j.j.j.j.q > Y 8.j.j.j.j.j.j.j.j.j.j.",
"j.j.j.j.j.j.j.< 2 ^ t.j.j.j.j.j.j.j.j.j.j.",
"j.j.j.j.j.j...4 h @.j.j.j.j.j.j.j.j.j.j.j.",
"j.j.j.j.j.j.N 1 F <.j.j.j.j.j.j.j.j.j.j.j.",
"j.j.j.j.j.j.; 3 E w.j.j.j.j.j.j.j.j.j.j.j.",
"j.j.j.j.j.j.  7 o.a.j.j.j.j.j.j.j.j.j.j.j.",
"j.j.j.j.j.N O B &.j.j.j.j.j.j.j.j.j.j.j.j.",
"j.j.j.j.j.p * A :.j.j.j.j.j.j.j.j.j.j.j.j.",
"j.j.j.j.j.i - G :.j.j.j.j.j.j.j.j.j.j.j.j.",
"j.j.j.j.j.e 2 ! t.j.j.j.j.j.j.j.j.j.j.j.j.",
"j.j.j.j.j.0 j _ y.j.j.j.j.j.j.j.j.j.j.j.j.",
"j.j.j.j.u - A :.j.j.j.j.j.j.j.j.j.j.j.j.j.",
"j.j.j.j.8 - K 8.j.j.j.j.j.j.j.j.j.j.j.j.j.",
"j.j.j.j.; 1 ~ 0.j.j.j.j.j.j.j.j.j.j.j.j.j.",
"j.j.j. .; 5 o.d.j.j.j.j.j.j.j.j.j.j.j.j.j.",
"j.j.j.[ - 7 $.j.j.j.j.j.j.j.j.j.j.j.j.j.j.",
"j.j.j.y > A *.j.j.j.j.j.j.j.j.j.j.j.j.j.j.",
"j.j.j.  1 U 7.j.j.j.j.j.j.j.j.j.j.j.j.j.j.",
"j.j.j.; 3 ! u.j.j.j.j.j.j.j.j.j.j.j.j.j.j.",
"j.j.u * 7 %.h.j.j.j.j.j.j.j.j.j.j.j.j.j.j.",
"j.j.y ; Z =.j.j.j.j.j.j.j.j.j.j.j.j.j.j.j.",
"j.j.y > J 9.j.j.j.j.j.j.j.j.j.j.j.j.j.j.j.",
"j.j.w 2 Y t.j.j.j.j.j.j.j.j.j.j.j.j.j.j.j.",
"j.} 0 7 O.j.j.j.j.j.j.j.j.j.j.j.j.j.j.j.j.",
"j.y 4 A %.j.j.j.j.j.j.j.j.j.j.j.j.j.j.j.j.",
"j.; r U :.j.j.j.j.j.j.j.j.j.j.j.j.j.j.j.j.",
"  ; V O.p.j.j.j.j.j.j.j.j.j.j.j.j.j.j.j.j.",
"0 7 Y 9.f.j.j.j.j.j.j.j.j.j.j.j.j.j.j.j.j.",
"S ~ :.d.j.j.j.j.j.j.j.j.j.j.j.j.j.j.j.j.j.",
"^ $.r.g.j.j.j.j.j.j.j.j.j.j.j.j.j.j.j.j.j."
};
