/* XPM */
static const char *twopoints[] = {
/* columns rows colors chars-per-pixel */
"10 50 160 2 ",
"   c #5A470C",
".  c #5A470F",
"X  c #5D4A0C",
"o  c #5F4C0D",
"O  c #5F4D0E",
"+  c #574514",
"@  c #594610",
"#  c #5C4810",
"$  c #5C4811",
"%  c #5D4A10",
"&  c #5F4C15",
"*  c #614E0B",
"=  c #624F0A",
"-  c #624E0D",
";  c #604D0E",
":  c #64500C",
">  c #64500D",
",  c #67530E",
"<  c #6A560D",
"1  c #614D12",
"2  c #604C17",
"3  c #6C5710",
"4  c #6A5514",
"5  c #6B5515",
"6  c #6D5615",
"7  c #66531C",
"8  c #69571F",
"9  c #6A591E",
"0  c #735B15",
"q  c #735B17",
"w  c #745C16",
"e  c #7E6101",
"r  c #7C600F",
"t  c #7F660F",
"y  c #7A6013",
"u  c #7F6510",
"i  c #7D6611",
"p  c #675720",
"a  c #6A5720",
"s  c #6F5B22",
"d  c #705F22",
"f  c #716021",
"g  c #7A6A2F",
"h  c #7B6C31",
"j  c #856601",
"k  c #82630B",
"l  c #846A0D",
"z  c #8C6F0B",
"x  c #92730A",
"c  c #846911",
"v  c #866C11",
"b  c #8A6A11",
"n  c #816519",
"m  c #826819",
"M  c #81681B",
"N  c #85691A",
"B  c #876D1E",
"V  c #8D7010",
"C  c #8D7111",
"Z  c #8C7113",
"A  c #8E7212",
"S  c #997612",
"D  c #967812",
"F  c #9F7B13",
"G  c #91731A",
"H  c #92761D",
"J  c #9C7B1C",
"K  c #A07F1E",
"L  c #A17F1F",
"P  c #806926",
"I  c #957822",
"U  c #977E26",
"Y  c #AD880B",
"T  c #AE8A0F",
"R  c #BB930E",
"E  c #A68413",
"W  c #A5831E",
"Q  c #B28E18",
"!  c #B48F19",
"~  c #B6911F",
"^  c #BB9618",
"/  c #A18020",
"(  c #A88521",
")  c #AA8725",
"_  c #AB8925",
"`  c #B49127",
"'  c #BD9820",
"]  c #B6912F",
"[  c #B99429",
"{  c #C19B1B",
"}  c #C39D1B",
"|  c #C49E1C",
" . c #CBA119",
".. c #D2A91E",
"X. c #C19A26",
"o. c #C8A129",
"O. c #CDA52F",
"+. c #D1A72C",
"@. c #D6A92D",
"#. c #D6AA2E",
"$. c #DFB223",
"%. c #CDA834",
"&. c #C6A73E",
"*. c #D9AC30",
"=. c #DBB331",
"-. c #DDB33D",
";. c #DFB83E",
":. c #E3B92D",
">. c #E2BA33",
",. c #E4BB31",
"<. c #E4BD38",
"1. c #EAC23E",
"2. c #AA9A4A",
"3. c #B19F4B",
"4. c #D2AD41",
"5. c #D4B047",
"6. c #DFB742",
"7. c #C7B252",
"8. c #C4B25B",
"9. c #D5B150",
"0. c #E6BD4A",
"q. c #E7BE4B",
"w. c #E6BF4D",
"e. c #E3BF5A",
"r. c #DEC354",
"t. c #E7C04F",
"y. c #EAC44B",
"u. c #E2C151",
"i. c #E6C053",
"p. c #E7CB55",
"a. c #EDCB5F",
"s. c #DFC964",
"d. c #E7C769",
"f. c #E8C76D",
"g. c #F1CF67",
"h. c #F2DB6E",
"j. c #EBCE7F",
"k. c #F4DF7B",
"l. c #F3D87D",
"z. c #F8E279",
"x. c #EACF84",
"c. c #EAD18A",
"v. c #EFD58B",
"b. c #F0D483",
"n. c #F3E082",
"m. c #F5E281",
"M. c #F6E280",
"N. c #F3E191",
"B. c #F5E490",
"V. c #F1DBA1",
"C. c #F0DDAB",
"Z. c #F1DDAD",
"A. c #F5E2A1",
"S. c #F7E9A3",
"D. c #F5E5AE",
"F. c #F6E5AE",
"G. c #F8ECAD",
"H. c #F9F0BD",
"J. c #F9F1BF",
"K. c None",
/* pixels */
"K.K.K.K.K.K.K.K.K.K.",
"K.K.K.K.K.K.K.K.K.K.",
"K.K.K.K.K.K.K.K.K.K.",
"K.K.K.K.K.K.K.K.K.K.",
"K.K.K.K.K.K.K.K.K.K.",
"K.K.K.K.K.K.K.K.K.K.",
"K.K.K.K.K.K.K.K.K.K.",
"K.K.K.K.K.K.K.K.K.K.",
"K.K.K.K.K.K.K.K.K.K.",
"K.K.K.K.K.K.K.K.K.K.",
"K.K.K.K.K.K.K.K.K.K.",
"K.K.K.K.K.K.K.K.K.K.",
"K.K.K.K.K.K.K.K.K.K.",
"K.K.K.K.K.K.K.K.K.K.",
"K.K.K.p.r.7.3.2.K.K.",
"K.K.' R Y x e j 8.K.",
"K.K.U V l t z T s.K.",
"K.K.K.3 < i E ..h.K.",
"K.K.g ; * v ^ :.z.K.",
"K.K.h O = C } <.M.K.",
"K.K.K.o : A | <.m.K.",
"K.K.f X > Z { >.K.K.",
"K.K.9   , D  .,.k.K.",
"K.K.p - u ! $.1.n.K.",
"K.K.d c Q =.y.a.B.K.",
"K.K.H ~ ;.g.b.v.S.K.",
"K.K.&.u.l.A.F.D.K.K.",
"K.K.K.K.K.K.K.K.K.K.",
"K.K.K.K.K.K.K.K.K.K.",
"K.K.K.K.K.K.K.K.K.K.",
"K.K.K.K.K.K.K.K.K.K.",
"K.K.K.K.K.K.K.K.K.K.",
"K.K.K.K.K.K.K.K.K.K.",
"K.K.K.K.K.K.K.K.K.K.",
"K.K.K.K.K.K.K.K.K.K.",
"K.K.K.K.K.K.K.K.K.K.",
"K.K.%.o.` I M B K.K.",
"K.K./ S b r k F K.K.",
"K.K.P w 0 m W O.K.K.",
"K.K.s 1 4 G X.6.K.K.",
"K.K.7 . 5 J +.w.K.K.",
"K.K.8 # 6 K #.t.K.K.",
"K.K.a $ 6 L @.q.K.K.",
"K.K.2 @ q ( *.0.K.K.",
"K.K.+ % N [ -.i.K.K.",
"K.K.& y _ 4.e.d.K.K.",
"K.K.n ) 5.f.x.c.K.K.",
"K.K.] 9.j.V.Z.C.K.K.",
"K.K.K.N.G.H.J.K.K.K.",
"K.K.K.K.K.K.K.K.K.K."
};
