/* XPM */
static const char *claw_close[] = {
/* columns rows colors chars-per-pixel */
"42 43 156 2 ",
"   c #2F343D",
".  c #30343A",
"X  c #4F3118",
"o  c #573113",
"O  c #5B3213",
"+  c #6D3E1A",
"@  c #4E3726",
"#  c #4E3C2D",
"$  c #513722",
"%  c #4F3E30",
"&  c #534135",
"*  c #5C4533",
"=  c #774924",
"-  c #784924",
";  c #7B4D29",
":  c #674A32",
">  c #694D35",
",  c #644D3A",
"<  c #3D434B",
"1  c #3E4852",
"2  c #4A4441",
"3  c #504D4B",
"4  c #434954",
"5  c #444D5B",
"6  c #4F5356",
"7  c #4A525A",
"8  c #545353",
"9  c #52555C",
"0  c #565B5E",
"q  c #5B5B5C",
"w  c #4E5662",
"e  c #4F5963",
"r  c #4E596A",
"t  c #545760",
"y  c #525B65",
"u  c #5B5E61",
"i  c #545E6B",
"p  c #5A5E6A",
"a  c #565F71",
"s  c #5E6164",
"d  c #57616C",
"f  c #5D646D",
"g  c #576471",
"h  c #5C6672",
"j  c #5E6870",
"k  c #5B6579",
"l  c #5F6A7C",
"z  c #616464",
"x  c #656A6D",
"c  c #626770",
"v  c #636B73",
"b  c #696D72",
"n  c #646D7B",
"m  c #6B7175",
"M  c #67717F",
"N  c #6D757B",
"B  c #70777C",
"V  c #727A7E",
"C  c #814B22",
"Z  c #845A39",
"A  c #905F39",
"S  c #91623B",
"D  c #9B653A",
"F  c #9F693D",
"G  c #677480",
"H  c #697482",
"J  c #6D7A83",
"K  c #677189",
"L  c #69748C",
"P  c #6E7989",
"I  c #707780",
"U  c #757C82",
"Y  c #787F85",
"T  c #717B8E",
"R  c #747B93",
"E  c #7A8185",
"W  c #75828F",
"Q  c #7B838A",
"!  c #76809E",
"~  c #7C8999",
"^  c #7E87A7",
"/  c #7D89A4",
"(  c #80878C",
")  c #858B8F",
"_  c #848C92",
"`  c #898F93",
"'  c #8B9196",
"]  c #82909C",
"[  c #8A929A",
"{  c #92949C",
"}  c #949A9E",
"|  c #858EAA",
" . c #8493A5",
".. c #8896A6",
"X. c #8C9AA5",
"o. c #8897AE",
"O. c #8D9DA9",
"+. c #9596A1",
"@. c #949DA2",
"#. c #999FA2",
"$. c #8591B4",
"%. c #939FBC",
"&. c #92A1B2",
"*. c #9AA5B1",
"=. c #95A2BD",
"-. c #99AABC",
";. c #A1A4A8",
":. c #A6B2BD",
">. c #AFBABD",
",. c #B0BABD",
"<. c #9FB0C7",
"1. c #A2B2C4",
"2. c #A2B2CC",
"3. c #ACBED5",
"4. c #B4C2CF",
"5. c #AEC2D4",
"6. c #B1C5D5",
"7. c #B2C6DB",
"8. c #B5C9DD",
"9. c #BACCDE",
"0. c #B3C6E0",
"q. c #B5CEE7",
"w. c #B4CEE8",
"e. c #BBD1E6",
"r. c #B7D0E9",
"t. c #BED4EB",
"y. c #C8CCCC",
"u. c #CECED4",
"i. c #D0CFD7",
"p. c #D2D1D9",
"a. c #CBDEE6",
"s. c #C1D5EB",
"d. c #C5DAED",
"f. c #CADEE8",
"g. c #C6DCF1",
"h. c #C9DEF2",
"j. c #C6DFFA",
"k. c #D2E1E7",
"l. c #DEE0E2",
"z. c #D3E1E8",
"x. c #CBE2F5",
"c. c #C6E1F9",
"v. c #CEE4FA",
"b. c #D0E7FC",
"n. c #D3EAFE",
"m. c #DEECF8",
"M. c #DCF2FD",
"N. c #F5F2EF",
"B. c #E0ECF9",
"V. c #E3F1FC",
"C. c #E5FBFC",
"Z. c #F4F3F1",
"A. c #F7FAF7",
"S. c #F7FFFF",
"D. c #FEFFFF",
"F. c None",
/* pixels */
"F.F.F.F.F.F.F.F.F.F.F.F.F.F.F.F.F.* , , : : > , F.F.F.F.F.F.F.F.F.F.F.F.F.F.F.F.F.F.",
"F.F.F.F.F.F.F.F.F.F.F.F.F.F.F.F.& Z D A S A F S & F.F.F.F.F.F.F.F.F.F.F.F.F.F.F.F.F.",
"F.F.F.F.F.F.F.F.F.F.F.F.F.F.F.F.& ; - - = = C ; & F.F.F.F.F.F.F.F.F.F.F.F.F.F.F.F.F.",
"F.F.F.F.F.F.F.F.F.F.F.F.F.F.F.F.* + O O O O O + * F.F.F.F.F.F.F.F.F.F.F.F.F.F.F.F.F.",
"F.F.F.F.F.F.F.F.F.F.F.F.F.F.F.F.X @ 0 s q u 8 @ $ F.F.F.F.F.F.F.F.F.F.F.F.F.F.F.F.F.",
"F.F.F.F.F.F.F.F.F.F.F.F.F.F.F.F.2 M O.O.X.@.X.J 3 F.F.F.F.F.F.F.F.F.F.F.F.F.F.F.F.F.",
"F.F.F.F.F.F.F.F.F.F.F.F.F.F.F.d _ @.' ` _ _ ' #.] f F.F.F.F.F.F.F.F.F.F.F.F.F.F.F.F.",
"F.F.F.F.F.F.F.F.F.F.F.F.F.F.i _ #.` E U U E E ( @.` f F.F.F.F.F.F.F.F.F.F.F.F.F.F.F.",
"F.F.F.F.F.F.F.F.F.F.F.F.F.e Q } E B N B V B N N E } ) d F.F.F.F.F.F.F.F.F.F.F.F.F.F.",
"F.F.F.F.F.F.F.F.F.F.F.F.F.N } E m N U B v B V B N Q } E F.F.F.F.F.F.F.F.F.F.F.F.F.F.",
"F.F.F.F.F.F.F.F.F.F.F.F.i ) ) m B Y V c f v V U N N [ _ i F.F.F.F.F.F.F.F.F.F.F.F.F.",
"F.F.F.F.F.F.F.F.F.F.F.F.j E E N U B f { i.} f B V N E U j F.F.F.F.F.F.F.F.F.F.F.F.F.",
"F.F.F.F.F.F.F.F.F.F.F.F.j v E V U x p p.D.i.p x U V U j j F.F.F.F.F.F.F.F.F.F.F.F.F.",
"F.F.F.F.F.F.F.F.F.F.F.F.Y 6 E I V V x +.u.{ f B V V E 6 U F.F.F.F.F.F.F.F.F.F.F.F.F.",
"F.F.F.F.F.F.F.F.F.F.F.F.J < E U B U I f y x V U V Y E < V F.F.F.F.F.F.F.F.F.F.F.F.F.",
"F.F.F.F.F.F.F.F.F.F.F.F.Y b 6 Y U V V V B V I V U E 9 b Q F.F.F.F.F.F.F.F.F.F.F.F.F.",
"F.F.F.F.F.F.F.F.F.F.F.c A.:.. z E U U U U U I E U z   :.A.v F.F.F.F.F.F.F.F.F.F.F.F.",
"F.F.F.F.F.F.F.F.F.F.i y.D.c...8 s B U V U I U B q 6 ..j.D.y.i F.F.F.F.F.F.F.F.F.F.F.",
"F.F.F.F.F.F.F.F.F.F.{ D.g.v.c.R 9 s x x x x x s 0 T x.v.g.D.{ F.F.F.F.F.F.F.F.F.F.F.",
"F.F.F.F.F.F.F.F.F.v Z.m.r.x.2.$.L 7 0 q u u y 7 L $.2.x.r.B.Z.v F.F.F.F.F.F.F.F.F.F.",
"F.F.F.F.F.F.F.F.5 y.D.w.h.7.| ^ i F.F.y e y F.F.r / | 7.x.r.D.y.5 F.F.F.F.F.F.F.F.F.",
"F.F.F.F.F.F.F.F.} D.g.t.s.<.R G F.F.F.F.F.F.F.F.F.n ! =.d.t.g.D.} F.F.F.F.F.F.F.F.F.",
"F.F.F.F.F.F.F.v Z.m.w.x.3.^ k F.F.F.F.F.F.F.F.F.F.F.k ^ 5.x.w.m.Z.v F.F.F.F.F.F.F.F.",
"F.F.F.F.F.F.e y.S.r.g.h.%.K 1 F.F.F.F.F.F.F.F.F.F.F.1 K %.g.g.w.S.y.e F.F.F.F.F.F.F.",
"F.F.F.F.F.F.;.D.d.t.x.2.L v F.F.F.F.F.F.F.F.F.F.F.F.F.n L 2.x.t.g.D.;.F.F.F.F.F.F.F.",
"F.F.F.F.F.J l.V.e.h.s./ 5 F.F.F.F.F.F.F.F.F.F.F.F.F.F.F.5 / s.h.r.V.l.J F.F.F.F.F.F.",
"F.F.F.F.F.e 4.v.s.x.2.R I F.F.F.F.F.F.F.F.F.F.F.F.F.F.F.I R 2.x.s.v.4.e F.F.F.F.F.F.",
"F.F.F.F.F.F. .v.d.x.2.n F.F.F.F.F.F.F.F.F.F.F.F.F.F.F.F.F.n <.x.d.v. .F.F.F.F.F.F.F.",
"F.F.F.F.F.F.W s.h.h.8.M F.F.F.F.F.F.F.F.F.F.F.F.F.F.F.F.F.M 8.x.g.s.W F.F.F.F.F.F.F.",
"F.F.F.F.F.F.h 6.x.h.x.~ F.F.F.F.F.F.F.F.F.F.F.F.F.F.F.F.F.~ x.h.v.6.h F.F.F.F.F.F.F.",
"F.F.F.F.F.F.F.-.n.h.b. .F.F.F.F.F.F.F.F.F.F.F.F.F.F.F.F.F. .b.g.n.-.F.F.F.F.F.F.F.F.",
"F.F.F.F.F.F.F.] x.g.x.-.F.F.F.F.F.F.F.F.F.F.F.F.F.F.F.F.F.-.x.d.x.] F.F.F.F.F.F.F.F.",
"F.F.F.F.F.F.F.P t.g.x.9.F.F.F.F.F.F.F.F.F.F.F.F.F.F.F.F.F.9.x.g.s.P F.F.F.F.F.F.F.F.",
"F.F.F.F.F.F.F.e 5.b.h.h.[ F.F.F.F.F.F.F.F.F.F.F.F.F.F.F.[ d.h.n.5.w F.F.F.F.F.F.F.F.",
"F.F.F.F.F.F.F.F.&.n.g.x.*.F.F.F.F.F.F.F.F.F.F.F.F.F.F.F.*.x.g.n.&.F.F.F.F.F.F.F.F.F.",
"F.F.F.F.F.F.F.F.~ x.h.v.&.F.F.F.F.F.F.F.F.F.F.F.F.F.F.F.&.v.x.c.~ F.F.F.F.F.F.F.F.F.",
"F.F.F.F.F.F.F.F.n t.v.v.1.4 F.F.F.F.F.F.F.F.F.F.F.F.F.4 1.v.v.e.n F.F.F.F.F.F.F.F.F.",
"F.F.F.F.F.F.F.F.5 6.M.h.d.G F.F.F.F.F.F.F.F.F.F.F.F.F.G d.x.M.6.7 F.F.F.F.F.F.F.F.F.",
"F.F.F.F.F.F.F.F.F.T g.n.v.d.[ B F.F.F.F.F.F.F.F.F.B [ d.b.v.x.~ F.F.F.F.F.F.F.F.F.F.",
"F.F.F.F.F.F.F.F.F.< k 2.h.m.M.,.v F.F.F.F.F.F.F.v ,.V.m.g.2.L F.F.F.F.F.F.F.F.F.F.F.",
"F.F.F.F.F.F.F.F.F.F.F.g / 8.n.C.z.[ F.F.F.F.F.[ z.C.n.0./ k F.F.F.F.F.F.F.F.F.F.F.F.",
"F.F.F.F.F.F.F.F.F.F.F.F.w k o.3.b.f.n F.F.F.G f.x.2. .k 5 F.F.F.F.F.F.F.F.F.F.F.F.F.",
"F.F.F.F.F.F.F.F.F.F.F.F.F.F.w i n P F.F.F.F.F.H d d p F.F.F.F.F.F.F.F.F.F.F.F.F.F.F."
};
