/* XPM */
static const char *claw_open[] = {
/* columns rows colors chars-per-pixel */
"42 43 156 2 ",
"   c #282E36",
".  c #3E3631",
"X  c #582F0F",
"o  c #5A300F",
"O  c #502F13",
"+  c #5C3212",
"@  c #523319",
"#  c #683812",
"$  c #403126",
"%  c #4F3924",
"&  c #4E3B2C",
"*  c #533E2C",
"=  c #443A33",
"-  c #55402D",
";  c #4F4136",
":  c #47403B",
">  c #4F433A",
",  c #534235",
"<  c #5E4634",
"1  c #544639",
"2  c #654529",
"3  c #69472B",
"4  c #604734",
"5  c #684F39",
"6  c #634933",
"7  c #303640",
"8  c #363B44",
"9  c #3E434E",
"0  c #464B4F",
"q  c #4B4C4E",
"w  c #57514D",
"e  c #434957",
"r  c #494E52",
"t  c #454F5A",
"y  c #494F5D",
"u  c #4D5154",
"i  c #4A545D",
"p  c #555454",
"a  c #555A5E",
"s  c #4C5363",
"d  c #4E5964",
"f  c #4D596B",
"g  c #545B63",
"h  c #585F67",
"j  c #535B6D",
"k  c #575E72",
"l  c #566067",
"z  c #5D6164",
"x  c #57626A",
"c  c #5B636C",
"v  c #5C6573",
"b  c #5D657B",
"n  c #606366",
"m  c #62676A",
"M  c #65696C",
"N  c #636B73",
"B  c #6A6E73",
"V  c #646E7C",
"C  c #696C78",
"Z  c #6B7376",
"A  c #62707F",
"S  c #6C747A",
"D  c #70777C",
"F  c #72797E",
"G  c #83502A",
"H  c #8C552A",
"J  c #8E5F3B",
"K  c #8D613C",
"L  c #92623C",
"P  c #9E6D43",
"I  c #616B80",
"U  c #6A7482",
"Y  c #6D7A85",
"T  c #68738C",
"R  c #757D81",
"E  c #787F84",
"W  c #717E8D",
"Q  c #7D7F8C",
"!  c #6C7693",
"~  c #727C94",
"^  c #747E9A",
"/  c #7A8186",
"(  c #75818E",
")  c #7D848A",
"_  c #758392",
"`  c #788492",
"'  c #79849F",
"]  c #7C8998",
"[  c #7B84A3",
"{  c #7C88A3",
"}  c #81868E",
"|  c #82898D",
" . c #818993",
".. c #808E9E",
"X. c #8C9095",
"o. c #8D959A",
"O. c #90959A",
"+. c #93999D",
"@. c #818CA9",
"#. c #8695A5",
"$. c #8B97A1",
"%. c #8C9AA4",
"&. c #8895AE",
"*. c #8E9CAD",
"=. c #939BA1",
"-. c #919FA8",
";. c #9E9FAA",
":. c #8B98B2",
">. c #929EBC",
",. c #8FA0B3",
"<. c #94A3BE",
"1. c #96A9B9",
"2. c #9AACBC",
"3. c #A6AAAC",
"4. c #A7B0B6",
"5. c #98A4C2",
"6. c #9EADC7",
"7. c #9EB0CB",
"8. c #A5B3C3",
"9. c #ABBCD0",
"0. c #AEC1D6",
"q. c #B3C4D5",
"w. c #B8C7D3",
"e. c #B4C6DF",
"r. c #B5C9DC",
"t. c #B3CCE5",
"y. c #BACEE5",
"u. c #BED2E5",
"i. c #B7D0E8",
"p. c #BBD3EB",
"a. c #CECDD5",
"s. c #D9D7D6",
"d. c #DAD8D6",
"f. c #C2D5E9",
"g. c #C5D9ED",
"h. c #C6DCF2",
"j. c #C9DEF3",
"k. c #DCE6E5",
"l. c #CCE2F5",
"z. c #CEE4FA",
"x. c #D9E6F1",
"c. c #D4E9F7",
"v. c #D8E8F3",
"b. c #D1E6FA",
"n. c #D4ECFE",
"m. c #DFF0F2",
"M. c #DCF4FF",
"N. c #E4E4E3",
"B. c #E2EAEC",
"V. c #F5F2EF",
"C. c #E4F4FD",
"Z. c #ECFBFF",
"A. c #F9F8F7",
"S. c #F4FFFF",
"D. c #FCFEFE",
"F. c None",
/* pixels */
"F.F.F.F.F.F.F.F.F.F.F.F.F.F.F.F.F.F.. . F.F.$ = F.F.F.F.F.F.F.F.F.F.F.F.F.F.F.F.F.F.",
"F.F.F.F.F.F.F.F.F.F.F.F.F.F.F.F.F.& > , , - * 1 1 F.F.F.F.F.F.F.F.F.F.F.F.F.F.F.F.F.",
"F.F.F.F.F.F.F.F.F.F.F.F.F.F.F.F.F.< L L K J L P 5 F.F.F.F.F.F.F.F.F.F.F.F.F.F.F.F.F.",
"F.F.F.F.F.F.F.F.F.F.F.F.F.F.F.F.F.4 H G G G G H 4 F.F.F.F.F.F.F.F.F.F.F.F.F.F.F.F.F.",
"F.F.F.F.F.F.F.F.F.F.F.F.F.F.F.F.F.2 # X + + o # 3 F.F.F.F.F.F.F.F.F.F.F.F.F.F.F.F.F.",
"F.F.F.F.F.F.F.F.F.F.F.F.F.F.F.F.% O > p w p p * @ * F.F.F.F.F.F.F.F.F.F.F.F.F.F.F.F.",
"F.F.F.F.F.F.F.F.F.F.F.F.F.F.F.F.= r _ -.$.$.%.( p : F.F.F.F.F.F.F.F.F.F.F.F.F.F.F.F.",
"F.F.F.F.F.F.F.F.F.F.F.F.F.F.F.F.A o.+.X.X.X.X.=.-.I F.F.F.F.F.F.F.F.F.F.F.F.F.F.F.F.",
"F.F.F.F.F.F.F.F.F.F.F.F.F.F.F.v =.+.| R F / / } o.+.N F.F.F.F.F.F.F.F.F.F.F.F.F.F.F.",
"F.F.F.F.F.F.F.F.F.F.F.F.F.F.l X.O.R S S D D S S F o.+.c F.F.F.F.F.F.F.F.F.F.F.F.F.F.",
"F.F.F.F.F.F.F.F.F.F.F.F.F.F./ +.F Z F R Z Z R F S R +. .F.F.F.F.F.F.F.F.F.F.F.F.F.F.",
"F.F.F.F.F.F.F.F.F.F.F.F.F.c O./ S F R M c c B R F D | +.c F.F.F.F.F.F.F.F.F.F.F.F.F.",
"F.F.F.F.F.F.F.F.F.F.F.F.F.S / F D F Z N a.a.C B R D R E Z F.F.F.F.F.F.F.F.F.F.F.F.F.",
"F.F.F.F.F.F.F.F.F.F.F.F.N c D F F F z } D.D.Q c F S R S x v F.F.F.F.F.F.F.F.F.F.F.F.",
"F.F.F.F.F.F.F.F.F.F.F.N 3.N M / F F S C ;.;.N S R F E m N 3.N F.F.F.F.F.F.F.F.F.F.F.",
"F.F.F.F.F.F.F.F.F.d D N.S.b u / R F R D c c D R D R E u S S.N.F d F.F.F.F.F.F.F.F.F.",
"F.F.F.F.F.F.F.F.d 3.A.C.n.1.0 M R R F F F F F F R R M r 1.n.C.A.3.s F.F.F.F.F.F.F.F.",
"F.F.F.F.F.F.F.F d.D.j.t.n.f.v r B R R R R F R R F B r c g.n.y.j.D.d.F F.F.F.F.F.F.F.",
"F.F.F.F.F.t 3.D.Z.y.p.n.r.<.' d a M S D D D F D M a i ' >.r.n.p.i.Z.A.3.t F.F.F.F.F.",
"F.F.F.F.N d.D.c.t.h.c.9.@.@.~ v d a z n m m m z h a x ~ @.@.9.n.h.y.c.D.d.N F.F.F.F.",
"F.F.Y O.V.S.p.t.b.l.6.[ ^ V F.F.F.d g g g g g d d F.F.F.V ^ [ 6.l.z.t.h.S.V.O.Y F.F.",
"F.F.i B.Z.y.i.z.g.5.! V i F.F.F.F.F.F.F.F.F.F.F.F.F.F.F.F.i I ! 5.g.l.t.y.Z.B.i F.F.",
"F.F.N u.j.p.l.y.[ I V F.F.F.F.F.F.F.F.F.F.F.F.F.F.F.F.F.F.F.F.V I [ u.l.p.j.u.v F.F.",
"F.F.W y.j.j.f.@.k h F.F.F.F.F.F.F.F.F.F.F.F.F.F.F.F.F.F.F.F.F.F.z k @.p.h.l.y.W F.F.",
"F.F.( l.l.l.6.U F.F.F.F.F.F.F.F.F.F.F.F.F.F.F.F.F.F.F.F.F.F.F.F.F.F.U 6.l.l.l._ F.F.",
"F.F.] z.j.z.:.F.F.F.F.F.F.F.F.F.F.F.F.F.F.F.F.F.F.F.F.F.F.F.F.F.F.F.F.,.z.j.z.] F.F.",
"F.F.%.l.l.b.*.F.F.F.F.F.F.F.F.F.F.F.F.F.F.F.F.F.F.F.F.F.F.F.F.F.F.F.F.*.z.h.l.%.F.F.",
"F.g 6.z.h.g.` F.F.F.F.F.F.F.F.F.F.F.F.F.F.F.F.F.F.F.F.F.F.F.F.F.F.F.F.` g.h.z.2.g F.",
"F.t 9.b.j.r.] F.F.F.F.F.F.F.F.F.F.F.F.F.F.F.F.F.F.F.F.F.F.F.F.F.F.F.F. .e.l.b.9.t F.",
"x v 0.b.l.0.F.F.F.F.F.F.F.F.F.F.F.F.F.F.F.F.F.F.F.F.F.F.F.F.F.F.F.F.F.F.0.l.z.0.v x ",
"N Y y.z.l.w.F.F.F.F.F.F.F.F.F.F.F.F.F.F.F.F.F.F.F.F.F.F.F.F.F.F.F.F.F.F.w.l.z.y.Y N ",
"x Y h.l.z.8.F.F.F.F.F.F.F.F.F.F.F.F.F.F.F.F.F.F.F.F.F.F.F.F.F.F.F.F.F.F.8.z.l.h.Y c ",
"T ] l.z.l.#.F.F.F.F.F.F.F.F.F.F.F.F.F.F.F.F.F.F.F.F.F.F.F.F.F.F.F.F.F.F.#.l.l.j.@.U ",
"_ *.n.n.g.A F.F.F.F.F.F.F.F.F.F.F.F.F.F.F.F.F.F.F.F.F.F.F.F.F.F.F.F.F.F.V g.n.b.*.( ",
"s b e.n.l.~ F.F.F.F.F.F.F.F.F.F.F.F.F.F.F.F.F.F.F.F.F.F.F.F.F.F.F.F.F.F.W z.n.t.b s ",
"F.9 T p.M.w.S F.F.F.F.F.F.F.F.F.F.F.F.F.F.F.F.F.F.F.F.F.F.F.F.F.F.F.F.S w.M.y.T i g ",
"F.F.i { z.C.4.F.F.F.F.F.F.F.F.F.F.F.F.F.F.F.F.F.F.F.F.F.F.F.F.F.F.F.F.4.C.z.[ t F.F.",
"F.F.F.j <.M.m.E F.F.F.F.F.F.F.F.F.F.F.F.F.F.F.F.F.F.F.F.F.F.F.F.F.F./ m.M.5.j F.F.F.",
"F.F.F.x k 8.Z.k.v F.F.F.F.F.F.F.F.F.F.F.F.F.F.F.F.F.F.F.F.F.F.F.F.v k.Z.7.x x F.F.F.",
"F.F.F.F.F.v :.c.( F.F.F.F.F.F.F.F.F.F.F.F.F.F.F.F.F.F.F.F.F.F.F.F.` x.&.v F.F.F.F.F.",
"F.F.F.F.F.F.i b v F.F.F.F.F.F.F.F.F.F.F.F.F.F.F.F.F.F.F.F.F.F.F.F.V f e F.F.F.F.F.F.",
"F.F.F.F.F.F.F.8 F.F.F.F.F.F.F.F.F.F.F.F.F.F.F.F.F.F.F.F.F.F.F.F.F.F.  F.F.F.F.F.F.F.",
"F.F.F.F.F.F.F.9 F.F.F.F.F.F.F.F.F.F.F.F.F.F.F.F.F.F.F.F.F.F.F.F.F.F.7 F.F.F.F.F.F.F."
};
