/* XPM */
static const char *clock_xpm[] = {
/* columns rows colors chars-per-pixel */
"38 45 220 2 ",
"   c #000000",
".  c #010000",
"X  c #010101",
"o  c #020101",
"O  c #020201",
"+  c #030201",
"@  c #030301",
"#  c #020202",
"$  c #040301",
"%  c #040302",
"&  c #040402",
"*  c #050402",
"=  c #050503",
"-  c #060502",
";  c #060503",
":  c #070602",
">  c #060603",
",  c #070603",
"<  c #040404",
"1  c #050505",
"2  c #070704",
"3  c #060606",
"4  c #070707",
"5  c #080603",
"6  c #080703",
"7  c #090703",
"8  c #090803",
"9  c #090804",
"0  c #0A0804",
"q  c #0A0904",
"w  c #0B0904",
"e  c #0B0A04",
"r  c #0A0906",
"t  c #0B0A06",
"y  c #0C0A04",
"u  c #0C0A05",
"i  c #0D0B05",
"p  c #0E0B05",
"a  c #0C0B06",
"s  c #0D0B06",
"d  c #0E0C05",
"f  c #0D0C06",
"g  c #0D0C07",
"h  c #0E0C06",
"j  c #0F0C06",
"k  c #0F0D06",
"l  c #0E0C07",
"z  c #0E0D07",
"x  c #0F0D07",
"c  c #080808",
"v  c #090909",
"b  c #808080",
"n  c #100D06",
"m  c #100E06",
"M  c #110E06",
"N  c #100E07",
"B  c #110E07",
"V  c #120F07",
"C  c #110F08",
"Z  c #100F09",
"A  c #131008",
"S  c #131108",
"D  c #131109",
"F  c #13110A",
"G  c #141108",
"H  c #151108",
"J  c #151209",
"K  c #161208",
"L  c #161309",
"P  c #171309",
"I  c #14120A",
"U  c #15130A",
"Y  c #14120B",
"T  c #16130B",
"R  c #171409",
"E  c #16140B",
"W  c #17150B",
"Q  c #16130C",
"!  c #181409",
"~  c #191409",
"^  c #18140A",
"/  c #19150A",
"(  c #1A160A",
")  c #1B160A",
"_  c #1B170B",
"`  c #1A170C",
"'  c #19160E",
"]  c #1D180B",
"[  c #1F1A0B",
"{  c #1F190C",
"}  c #1F1A0C",
"|  c #1C190E",
" . c #1D190E",
".. c #1C190F",
"X. c #1D1A0E",
"o. c #1E1B0F",
"O. c #121212",
"+. c #141414",
"@. c #171717",
"#. c #201B0C",
"$. c #211C0D",
"%. c #221D0D",
"&. c #201D10",
"*. c #211D11",
"=. c #211E10",
"-. c #252011",
";. c #242112",
":. c #2C2715",
">. c #2D2818",
",. c #302A18",
"<. c #3D3720",
"1. c #353535",
"2. c #383838",
"3. c #463E20",
"4. c #6B5D32",
"5. c #736433",
"6. c #766734",
"7. c #434343",
"8. c #464646",
"9. c #484848",
"0. c #4F4F4F",
"q. c #505050",
"w. c #545454",
"e. c #595959",
"r. c #626262",
"t. c #676767",
"y. c #6b6b6b",
"u. c #7f7f7",
"i. c #85784B",
"p. c #A18A3E",
"a. c #9D8843",
"s. c #938248",
"d. c #9E8A49",
"f. c #948552",
"g. c #968755",
"h. c #9E8E57",
"j. c #AA9449",
"k. c #B49B46",
"l. c #B99F48",
"z. c #AE9953",
"x. c #A5945C",
"c. c #B69F53",
"v. c #B29C56",
"b. c #B9A04C",
"n. c #B3A163",
"m. c #B8A462",
"M. c #BCA762",
"N. c #C3A851",
"B. c #C8AE58",
"V. c #D0B350",
"C. c #D4B652",
"Z. c #D6B955",
"A. c #D8B953",
"S. c #DDBD55",
"D. c #DEBE56",
"F. c #D2B75D",
"G. c #DEBF58",
"H. c #DEBF5B",
"J. c #C2AD67",
"K. c #DABE60",
"L. c #D8BD64",
"P. c #D0B869",
"I. c #D6BE6C",
"U. c #D7BE6D",
"Y. c #E1C157",
"T. c #E2C257",
"R. c #E1C25B",
"E. c #E4C458",
"W. c #E5C458",
"Q. c #E6C558",
"!. c #E2C35E",
"~. c #E8C759",
"^. c #E8C75A",
"/. c #ECCB5B",
"(. c #EDCB5B",
"). c #EBCA5D",
"_. c #EDCB5C",
"`. c #EDCC5C",
"'. c #EDCC5D",
"]. c #EECC5C",
"[. c #EFCD5C",
"{. c #EDCC5E",
"}. c #EFCD5E",
"|. c #F1CF5D",
" X c #F3D05E",
".X c #F4D15E",
"XX c #F5D25F",
"oX c #F6D35F",
"OX c #DAC069",
"+X c #D9C06D",
"@X c #DCC36E",
"#X c #E5C660",
"$X c #E6C760",
"%X c #E8C960",
"&X c #E9C962",
"*X c #EFCE61",
"=X c #EACB67",
"-X c #EDCD66",
";X c #E1C66C",
":X c #E9CC6E",
">X c #ECCE6D",
",X c #F5D361",
"<X c #F4D262",
"1X c #F5D362",
"2X c #F2D267",
"3X c #F4D364",
"4X c #878787",
"5X c #949494",
"6X c #979797",
"7X c #9B9B9B",
"8X c #9e9e9e",
"9X c #a8a8a8",
"0X c #d9d9d9",
"qX c #f2f2f2",
"wX c #f5f5f5",
"eX c #F8F8F8",
"rX c #FDFDFD",
"tX c #FEFEFE",
"yX c #ffffff",
"uX c None",
/* pixels */
"uXuXuXuXuXuXuXuXuXuXuXuXuXuXuX                uXuXuXuXuXuXuXuXuXuXuXuXuXuXuX",
"uXuXuXuXuXuXuXuXuXuXuXuXuXuX                    uXuXuXuXuXuXuXuXuXuXuXuXuXuX",
"uXuXuXuXuXuXuXuXuXuXuXuXuX[ r m.+XU.U.U.U.+XJ.t #.uXuXuXuXuXuXuXuXuXuXuXuXuX",
"uXuXuXuXuXuXuXuXuXuXuXuX  7 ^.oXoXoXoXoXoXoXoXA.} uXuXuXuXuXuXuXuXuXuXuXuXuX",
"uXuXuXuXuXuXuXuXuXuXuXuX  9 l.oXoXoXoXoXoXoXoXD.% uXuXuXuXuXuXuXuXuXuXuXuXuX",
"uXuXuXuXuXuXuXuXuXuXuXuXuX#.Q I.OX@X@X@X@X;XP.' ! uXuXuXuXuXuXuXuXuXuXuXuXuX",
"uXuXuXuXuXuXuXuXuXuXuXuXuXuX    F Y Y ' ..'     uXuXuXuXuXuXuXuXuXuXuXuXuXuX",
"uXuXuXuXuXuXuXuXuXuXuXuXuXuXuX  N..X X[.(.G.  uXuXuXuXuXuXuXuXuXuXuXuXuXuXuX",
"uXuXuXuXuXuXuXuXuXuXuXuXuXuXuX  j. X|.].^.Z.  uXuXuXuXuXuXuXuXuXuXuXuXuXuXuX",
"uXuXuXuXuXuXuXuXuXuXuXuX        . = = = O O         uXuXuXuXuXuXuXuXuXuXuXuX",
"uXuXuXuXuXuXuXuXuXuXuXG & , , ; =.6.b.a.5.,.N 8 7 w ^ uXuXuXuXuXuXuXuXuXuXuX",
"uXuXuXuXuXuXuXuXuX    d V.XXoXoXoXoXoXoXoXoXoXoX|.k.7     uXuXuXuXuXuXuXuXuX",
"uXuXuXuXuXuXuX    u 3.,XoXoXoXoXoXoXoXoXoXoXoXoXoXoX1X| *   uXuXuXuXuXuXuXuX",
"uXuXuXuXuXuX    P F.oXoX.XG , & - w d p e , - i ] oXoXoXc.9     uXuXuXuXuXuX",
"uXuXuXuXuX    G -XoXoXoXn X                     9 / oXoXoX=XA     uXuXuXuXuX",
"uXuXuXuX    i <XoXoX[.k @   eXyXyXyXyXyXyXyXyXyX  - ) oXoXoX'.9     uXuXuXuX",
"uXuXuXuX  0 2XoXoXoX6 o   yXyXyXyXyXyXyXyXyXyXyXyX  5 ( oXoXoXH.&   uXuXuXuX",
"uXuXuX  i L.oXoX~.6 $   yXyXyXyXyXyXv v yXyXyXyXyXyX  5 ! oXoXoX!.9   uXuXuX",
"uXuX  0 4.oXoX^.7 +   yXyXyXyXyXyXyXv v yXyXyXyXyXyXyX  - / oXoXoX>.6   uXuX",
"uXuXd J oXoXT.- @   yXyXyXyXyXyXyXyXyXyXyXyXyXyXtXwXyXyX  8 K oXoX.X, V uXuX",
"uX  @ T.oXW.- *   yXyXyXyXyXyXyXyXyXyXyXyXyXyXyX1.  rXyXyX  - V oXoXS.6   uX",
"uX  B oXoX5 2 c rXyXyXyXyXyXyXyXyXyXyXyXyXyXyXq.  5XyXyXyXrXc l { oXoX(   uX",
"uX  f.oXoX9 < yXyXyXyXyXyXyX7X6XyXyXyXyXyXyX0.  7XyXyXyXyXyXyX3 l oXoXx.  uX",
"    $XoXoX; 1 yXyXyXyXyXyXyX9.  4XyXyXyXyX8.  7XyXyXyXyXyXyXyXc ; oXoXM.    ",
"    &XoXoX= 1 yXyXyXyXyXyXyXyXr.  t.e.y.7.  8XyXyXyXyXyXyXyXyXv @ oXoXv.    ",
"    *XoXoX* 3 yXyXyXyXyXyXyXyXyXw.        6XyXyXyXyXyXyXyXyXyXv   oXoXB.    ",
"    {.oXoX& 3 yXyXv v yXyXyXyXyX2.# yXeX  9XyXyXyXyXyXv v yXyXc > oXoX#X    ",
"    ).oXoX% 3 yXyXv v yXyXyXyXyX    tXqX  u.yXyXyXyXyXv v yXyXc & oXoX3X    ",
"    %XoXoX% 3 yXyXyXyXyXyXyXyXyX0X        qXyXyXyXyXyXyXyXyXyXc & oXoX>X    ",
"    K.oXoX* 3 yXyXyXyXyXyXyXyXyXyXyXyXyXyXyXyXyXyXyXyXyXyXyXyXc , oXoX:X    ",
"    h.oXoX, < yXyXyXyXyXyXyXyXyXyXyXyXyXyXyXyXyXyXyXyXyXyXyXyXc > oXoXn.    ",
"uX  i.oXoXg # yXyXyXyXyXyXyXyXyXyXyXyXyXyXyXyXyXyXyXyXyXyXyXyX< f oXoXg.  uX",
"uX   .oXoX;.X 1 yXyXyXyXyXyXyXyXyXyXyXyXyXyXyXyXyXyXyXyXyXyX4 x :.oXoX-.  uX",
"uX  , D.oXoXW & 4 yXyXyXyXyXyXyXyXyXyXyXyXyXyXyXyXyXyXyXyXv z X.oXoXoXq   uX",
"uXuX* ` oXoXoXh & c yXyXyXyXyXyXyXyXyXyXyXyXyXyXyXyXyXyXv C U /.oX[.x u uXuX",
"uXuXuX7 <.oXoXQ.s % 3 yXyXyXyXyXyXyXv v yXyXyXyXyXyXyXv C D oXoXoXT   uXuXuX",
"uXuXuX  h p.oXoXoXI O c yXyXyXyXyXyXv v yXyXyXyXyXyXc z E `.oXoXC.    uXuXuX",
"uXuXuXuX  L E.oXoX.XZ % 4 yXyXyXyXyXyXyXyXyXyXyXyX4 a *.oXoXoXY.8   uXuXuXuX",
"uXuXuXuXuX  G ,XoXoXoXw o   tXyXyXyXyXyXyXyXyXyX  , H oXoXoXA.S   uXuXuXuXuX",
"uXuXuXuXuXuX  n z.oXoX.Xm O                     9 _ oXoXoXR.M   uXuXuXuXuXuX",
"uXuXuXuXuXuXuX  f s.oXoXoXR q 0 0 9 5 : : : - - ~ oXoXoXd.s   uXuXuXuXuXuXuX",
"uXuXuXuXuXuXuXuX  0 o._.oXoXoXoXoXoXoXoXoXoXoXoXoXoX|.&.9   uXuXuXuXuXuXuXuX",
"uXuXuXuXuXuXuXuXuX  y 0 }.oXoXoXoXoXoXoXoXoXoXoXoX).5 7   uXuXuXuXuXuXuXuXuX",
"uXuXuXuXuXuXuXuXuXuXuX  l 0 u j / $.%.%.$./ i 8 9 z   uXuXuXuXuXuXuXuXuXuXuX",
"uXuXuXuXuXuXuXuXuXuXuXuXuXuXO.c # b +.+.b < 3 @.uXuXuXuXuXuXuXuXuXuXuXuXuXuX"
};
