/* XPM */
static const char *gold[] = {
/* columns rows colors chars-per-pixel */
"46 35 179 2 ",
"   c #4E3206",
".  c #523606",
"X  c #563907",
"o  c #5B3D08",
"O  c #5E4009",
"+  c #6C4504",
"@  c #63440A",
"#  c #67480B",
"$  c #6B4B0C",
"%  c #644207",
"&  c #704F0D",
"*  c #73520E",
"=  c #674A12",
"-  c #755411",
";  c #795711",
":  c #7C5A13",
">  c #7D5D1D",
",  c #725727",
"<  c #795C23",
"1  c #7E6539",
"2  c #805D12",
"3  c #866113",
"4  c #8B6513",
"5  c #85641C",
"6  c #946C15",
"7  c #926D1A",
"8  c #997017",
"9  c #967119",
"0  c #9C7419",
"q  c #A0771A",
"w  c #A37A1B",
"e  c #A97F1E",
"r  c #816122",
"t  c #8B6D2D",
"y  c #85672A",
"u  c #906F27",
"i  c #9D7A29",
"p  c #8A6D33",
"a  c #876C36",
"s  c #8C7037",
"d  c #8D733F",
"f  c #91753E",
"g  c #97793A",
"h  c #A27E24",
"j  c #A17D2B",
"k  c #A07F30",
"l  c #947943",
"z  c #937A49",
"x  c #987E4A",
"c  c #897656",
"v  c #8C795B",
"b  c #917F63",
"n  c #AB811E",
"m  c #A58127",
"M  c #AC8523",
"N  c #A78328",
"B  c #AA852A",
"V  c #AD892C",
"C  c #B08620",
"Z  c #B58B22",
"A  c #B98E23",
"S  c #B18C2E",
"D  c #BC9126",
"F  c #B7912F",
"G  c #BC9329",
"H  c #A7873B",
"J  c #AA8736",
"K  c #B28E30",
"L  c #B59132",
"P  c #BA9535",
"I  c #BD9936",
"U  c #BE9A38",
"Y  c #C19627",
"T  c #C39927",
"R  c #C49929",
"E  c #C89D2A",
"W  c #C2972A",
"Q  c #C39C34",
"!  c #C99F31",
"~  c #C29D3B",
"^  c #CDA22C",
"/  c #D1A52D",
"(  c #D5A92E",
")  c #CBA436",
"_  c #C5A23D",
"`  c #CBA53D",
"'  c #D5AA34",
"]  c #D9AD31",
"[  c #D9AF39",
"{  c #D3A936",
"}  c #DEB134",
"|  c #DEB53E",
" . c #E0B63B",
".. c #9D8554",
"X. c #9E8658",
"o. c #B6974E",
"O. c #A28B5B",
"+. c #938266",
"@. c #9A8766",
"#. c #A58F62",
"$. c #A89368",
"%. c #A69064",
"&. c #A89777",
"*. c #AD9970",
"=. c #B29F78",
"-. c #BCA265",
";. c #B6A176",
":. c #C7A441",
">. c #CAA641",
",. c #CDAA43",
"<. c #D1AE45",
"1. c #D2AF48",
"2. c #D4B047",
"3. c #D5B249",
"4. c #D9B64B",
"5. c #DDB94E",
"6. c #DBB342",
"7. c #C7A754",
"8. c #DEBB50",
"9. c #DEBB5A",
"0. c #E2BC4C",
"q. c #E2BE52",
"w. c #E3BF5C",
"e. c #DBBA63",
"r. c #C6AE74",
"t. c #E0BF61",
"y. c #E6C14D",
"u. c #EBC44D",
"i. c #E5C254",
"p. c #E9C555",
"a. c #E6C35B",
"s. c #E9C659",
"d. c #EDCA5A",
"f. c #EEC852",
"g. c #F0CB56",
"h. c #F1CE5D",
"j. c #F4D15E",
"k. c #DFC274",
"l. c #E5C462",
"z. c #E9C765",
"x. c #E7C76D",
"c. c #E8C768",
"v. c #EECE6D",
"b. c #F0CF6A",
"n. c #F6D463",
"m. c #F9D664",
"M. c #FAD866",
"N. c #F6D56C",
"B. c #F8D769",
"V. c #FAD96C",
"C. c #E5C97E",
"Z. c #EACD79",
"A. c #F4D572",
"S. c #F7D975",
"D. c #F9DA74",
"F. c #F6D97B",
"G. c #F9DC7B",
"H. c #A89980",
"J. c #D1BA80",
"K. c #E8CE88",
"L. c #E9CE83",
"P. c #FADE83",
"I. c #F6DD8C",
"U. c #F9DF8A",
"Y. c #F7DC82",
"T. c #E8D195",
"R. c #F4DC93",
"E. c #F8DF90",
"W. c #FCE086",
"Q. c #FBE18C",
"!. c #FAE292",
"~. c #FAE499",
"^. c #FBE6A1",
"/. c #FCE8A6",
"(. c #F9E7AB",
"). c #FBE9AB",
"_. c #FCECBA",
"`. c #FAEAB5",
"'. c None",
/* pixels */
"'.'.'.'.'.'.'.'.'.'.'.'.'.'.'.'.o . 5 * O o $ < a ....'.'.'.'.'.'.'.'.'.'.'.'.'.'.'.'.'.'.'.",
"'.'.'.'.'.'.'.'.'.'.'.'.'.X.a & # 2 C w w 2 m r.-.s t y s ..p # O '.'.'.'.'.'.'.'.'.'.'.'.'.",
"'.'.'.'.'.'.'.'.'.'.'.O.d & ; ; 3 8 T ( [ t.K.C.6.E E D Z T C ; O # * #.'.'.'.'.'.'.'.'.'.'.",
"'.'.'.'.'.'.'.'.'.$.d & 7 A q 4 4 M i.I.).`.R.d.y.z.l./ G } 9.R Z Z 7 #.H., '.'.'.'.'.'.'.'.",
"'.'.'.'.'.'.'.'.$.> $ 8 q 8 8 w G _ 0.G.~.!.V.d.V.^.~.j.p.D.Q.D.y./ ^ _ &.z $ '.'.'.'.'.'.'.",
"'.'.'.'.'.'.* y 2 % h e q h P 1.d.d.d.j.n.h.h.h.B.D.j.,.U _ 2.5.n.N.| / 5.a.H f '.'.'.'.'.'.",
"'.'.'.'.'.# # # e Z } f.~ P 0.n.V.Q.Q.G.V.V.m.d.<._ I B B P _ 4.N.S.y._ A A / o.: '.'.'.'.'.",
"'.'.'.'.; > * T A 0.I.(.h.5.h.P.U./._.).!.M.3.~ V K P I 3.j.p.2.3.3.I V 0 w ) | - O '.'.'.'.",
"'.'.'.'.b b ;.x.A.I.(._.E.p.h.~.(.~././.W.4.K V I ,.8.n.Q.!.i.U P V B V K U ] } # X . '.'.'.",
"'.'.'...f J l.v.N.Y.E.R.V.5.4.N.S.h.h.d.4.U V ~ >.:.8.D.W.j.~ U 3.,._ 3.<.<.g.} A X @ '.'.'.",
"'.'.'.* & A D Q 3.j.V.i.:.K K ~ _ I ~ :.~ U K :.8.3.3.8.1.U P 4.W.S.h.p.` _ n.a.E : $ '.'.'.",
"'.'.# o q A _ 3.n.Q.U.q.~ P L L K V U 4.8.1.L :.V.G.h.a.1.U 4.S.!.N.4._ F _ V.j.A 0 # # '.'.",
"'.'.# # Z ! i.V.P.Q.D.n.m.h.q.q.5.:._ <.q.1.L :.W.^.G.W.M.4.p.h.s.5.` K B ` d.<.M w w X '.'.",
"'.# r ` / 6.p.B.h.q.1.4.n.n.h.G.G.s.,.3.d.i.4.p.W.!.Q.Q.s.U I P _ i.s.U F 4.p._ P T T # '.'.",
"'.& %.K.l.D.S.N.h.i.0.4.4.5.8.h.h.s.h.G.Q.S.W.!.W.M.n.d.~ V U _ 5.S.N.U L 2.3.I F A D s l '.",
"'.f J.Z.b.D.N.n.M.D.B.d.q.i.5.:.I 2.D.^.!.G.~.~.j.` ~ :.~ ,.j.W.Q.~.j.P F _ Q I I e A g O.'.",
"= b L.0.<._ >.>.q.m.n.i.h.G.B.>.P <.n.W.G.j.S.G.i._ >.i.d.j.Q.~.Q.N.<.B I 4.4.h.i.n n 3 ; '.",
"& u ] A S ~ _ U ,.h.n.D.U./.!.q.5.h.j.j.i.:.3.d.s.p.m.Q.Q.V.D.n.<.I B m _ h.F.~.F.n 0 O # '.",
"o & Z Z ` m.B.0.3.h.G.!.~.Q.m.5.h.W.G.q.U N V U _ 3.j.B.s.5.5._ V L P K U i.S.Q.g.n 9 & s '.",
"X o A E f.U.U.p.w.S.~.U.d.<.U K ,.n.n.:.V K L L K L I P L V V m L i.j.,.` j.V.4.F 8 9 * f '.",
"o @ w C ) h.a.~ 6.D.U.n.:.L P B B U U B I 5.q.q.8.:.P S P ~ L h P j.N.4.3.F.G._ 9 6 : # O '.",
"o $ 2 A Y >.P N K >.>.~ P 4.d.,.I :.~ V _ d.s.s.j.i.3.5.n.V.3.B V _ ,.I ~ d.D.3.w 0 ; O '.'.",
"'.& u t.a.6.~ L L K V K ~ i.B.n.j.V.s.P L _ ~ U _ U ,.n.^.Q.5.S K L B m V <.n.u.Z Z < z '.'.",
"'.& p L.T.c.f.q.q.5.4.q.4.>.5.B.!.Q.5.K K U U ~ _ P :.V.^.S.2.I <.q.<._ ,.j.I.d.Z n c =.'.'.",
"'.'.& r e.i.{ d.G.U.U.G.a._ >.i.M.d.I B :.d.d.j.B.j.h.S.S.q._ I 4.j.j.s.j.D.A.| A ; * * '.'.",
"'.'.o # * Z e Q h.m.m.d.1.>.1.3.2.~ B V 1.h.a.s.n.d.n.n.3.L B B L _ ` <.2.<.) ^ E @ X '.'.'.",
"'.'.'.X . 6 8 n ~ ~ P P U U ~ _ U S i m K I K L P P ,.2.K m V P L L _ _ P P G Z - o . '.'.'.",
"'.'.'.X . X A E W B j P 4.3.K V V B m m m N L P N m B V m V 4.h.4.2.j.h.) ) I $ o X '.'.'.'.",
"'.'.'.'.# $ K e.( w 6 A p.p.Q _ ` U V N K ,.h.d._ K F K K ,.V.F.q.2.N.c.' U - .     '.'.'.'.",
"'.'.'.'.'.#.O.j 2 * 4 Z ( ^ T f.S.i.~ >.i.m.W.n.4.i.p.4.i.j.j.i.U A 0.l.i - o X   '.'.'.'.'.",
"'.'.'.'.'.'.& % X + @ 9 7.' ^ ] } G U j.S.n.j.q.p.F.S.j.N.v.{ n e A Q ; o @ $ @ '.'.'.'.'.'.",
"'.'.'.'.'.'.'.'.o * ..O...; * ; 8 6 0 T ^ C Z / i.x.} / t.k.( n 4 # o X . o # '.'.'.'.'.'.'.",
"'.'.'.'.'.'.'.'.'.'.'.- # @ X     X % o + * 4 9 j 7 $   v c X X $ @ X o '.'.'.'.'.'.'.'.'.'.",
"'.'.'.'.'.'.'.'.'.'.'.'.'.'.'.'.o $ * @ o O $ $ # o o o @.1 X X '.'.'.'.'.'.'.'.'.'.'.'.'.'.",
"'.'.'.'.'.'.'.'.'.'.'.'.'.'.'.'.'.'.'.'.'.'.'.# '.'.'.'.'.'.'.'.'.'.'.'.'.'.'.'.'.'.'.'.'.'."
};
