/* XPM */
static const char *obsidian[] = {
/* columns rows colors chars-per-pixel */
"46 35 40 1 ",
"  c None",
". c #000000",
"X c #010000",
"o c #020000",
"O c #030100",
"+ c #050000",
"@ c #040201",
"# c #050302",
"$ c #060403",
"% c #0C0500",
"& c #080504",
"* c #090605",
"= c #0A0706",
"- c #0B0807",
"; c #0C0A08",
": c #0D0B09",
"> c #0E0C0A",
", c #0F0D0B",
"< c #100901",
"1 c #100E0C",
"2 c #110F0D",
"3 c #120F0E",
"4 c #13100F",
"5 c #131110",
"6 c #141211",
"7 c #151312",
"8 c #161413",
"9 c #171514",
"0 c #181615",
"q c #191716",
"w c #1A1817",
"e c #1B1918",
"r c #1C1A19",
"t c #1D1B1A",
"y c #1E1C1B",
"u c #1F1D1C",
"i c #201E1D",
"p c #22201F",
"a c #232120",
"s c #272625",
/* pixels */
"              ...............                 ",
"            .....................             ",
"          ...........................         ",
"        ..............................        ",
"       ......#=:,::::::::;=#............      ",
"      .....=,35899988888888341=#.........     ",
"    .....#:389qeyyqqqqqqqqqqq9831;........    ",
"   .....=,8qquyqqqqqqqqqqqqqqq8q883=......    ",
"   ...#:38qyuyqqqqqqqqqqqqqqqqqqq995,......   ",
"  <..#,89qyywqqqqqqqqqqqqqqqqqqqqqqq83......  ",
"  ...;8qpyeqqqqqqqqqqqqqqqqqqqqqqqqq98=.....  ",
"  ..#18ipwqqqqqqqqqqqqqqqqqqqqqqqqqqq9,.....  ",
"  ..=3qsyqqqqqqqqqqqqqqqqqqqqqqqqqqqqq5.....  ",
" ...:8qsqqqqqqqqqqqqqqqqqqqqqqqqqqqqqq8$..... ",
"%..#18ypqqqqqqqqqqqqqqqqqqqqqqqqqqqqqq8:..... ",
"...-3qpiqqqqqqqqqqqqqqqqqqqqqqqqqqqqqq93..... ",
"...:89ywqqqqqqqqqqwqqqqqqqqqqqqqqqqqqqq4..... ",
"...:8qyqqqqqqqqqqqqqqqqqqqqqqqqqqqqqqqq4..... ",
"...:59wqqqqqqqqqqqqqqqqqqqqqqqqqqqqqqqq4..... ",
"...;5qwqqqqqqqqqqqqqqqqqqqqqqqqqqqqqqqq4..... ",
"...=3qqwqqqqqqqqqqqqqqqqqqqqqqqqqqqqqqq3..... ",
"...#38qwqqqqqqqqqqqqqqqqqqqqqqqqqqqqqq9:..... ",
"#...=5qqwqqqqqqqqqqqqqqqqqqqqqqqqqqqqq8$..... ",
" ....:89qwqqqqqqqqqqqqqqqqqqqqqqqqqqq93...... ",
" ....$39qwqqqqqqqqqqqqqqqqqqqqqqqqqq88=.....  ",
"  ....=89wwqqqqqqqqqqqqqqqqqqqqqqqqqq,......  ",
"   ....,89qqwqqqqqqqqqqqqqqqqqqqqq9q4$.....   ",
"   .....=348889qqwqqqqqwqqqqqqqq8883=......   ",
"    ......#$=:348888qq8888888543:=#.......    ",
"    ............#$=;343:=&#$##............    ",
"     ....................................     ",
"       .................................      ",
"        ..............................        ",
"              ....................            ",
"                    .....                     "
};
