/* XPM */
static const char *rope[] = {
/* columns rows colors chars-per-pixel */
"6 8 46 1 ",
"  c #613412",
". c #764A14",
"X c #7D551C",
"o c #724D21",
"O c #775125",
"+ c #6F5938",
"@ c #865E30",
"# c #876026",
"$ c #84602C",
"% c #84622E",
"& c #8A6B2E",
"* c #94682E",
"= c #866636",
"- c #8A6430",
"; c #916C39",
": c #A67A3A",
"> c #836746",
", c #9E7940",
"< c #93754A",
"1 c #A47B44",
"2 c #A88044",
"3 c #A7804C",
"4 c #AB824A",
"5 c #AA834A",
"6 c #BB8D4D",
"7 c #BD8E4F",
"8 c #BD924E",
"9 c #BB8E51",
"0 c #BF975B",
"q c #C18E53",
"w c #C09A58",
"e c #C9A168",
"r c #D8B06E",
"t c #DBB273",
"y c #DCB071",
"u c #DEB170",
"i c #DEB375",
"p c #E7B56B",
"a c #E0B673",
"s c #EABB75",
"d c #ECC07D",
"f c #EEC17C",
"g c #F0C67F",
"h c #C2AF8D",
"j c #F4C883",
"k c None",
/* pixels */
"k*dt.+",
"h7j3 &",
"<pyO-9",
"2s1@wq",
"8e$4i:",
"0;%ra=",
",o5g6k",
">Xuf#k"
};
