/* XPM */
static const char *stone[] = {
/* columns rows colors chars-per-pixel */
"46 35 69 1 ",
"  c #25211F",
". c #29221A",
"X c #272321",
"o c #2A2623",
"O c #2D2926",
"+ c #2F2B28",
"@ c #322B23",
"# c #322E2B",
"$ c #36312E",
"% c #373230",
"& c #3A3532",
"* c #3E3936",
"= c #433A2F",
"- c #453D33",
"; c #423D3A",
": c #46413E",
"> c #4A433D",
", c #4D4744",
"< c #4E4845",
"1 c #504A47",
"2 c #534D4A",
"3 c #56504E",
"4 c #5A524C",
"5 c #5A5451",
"6 c #5E5956",
"7 c #625C5A",
"8 c #65605E",
"9 c #6B6663",
"0 c #6F6A66",
"q c #736E6C",
"w c #75716F",
"e c #777270",
"r c #797472",
"t c #7E7975",
"y c #7F7B79",
"u c #827E7B",
"i c #85817F",
"p c #868280",
"a c #8A8684",
"s c #8D8987",
"d c #8F8C8A",
"f c #918E8C",
"g c #94918F",
"h c #969291",
"j c #989593",
"k c #9C9997",
"l c #9F9B9A",
"z c #A09B96",
"x c #A29F9D",
"c c #A4A09F",
"v c #A6A3A1",
"b c #A9A6A4",
"n c #ABA8A7",
"m c #AEABAA",
"M c #B0ADAC",
"N c #B3B0AF",
"B c #B5B2B1",
"V c #B9B7B6",
"C c #BBB8B6",
"Z c #BEBCBB",
"A c #C1BFBD",
"S c #C2C0BF",
"D c #C6C4C3",
"F c #C9C7C7",
"G c #CBC9C5",
"H c #CDCBCA",
"J c #D0CFCE",
"K c #D2D0CE",
"L c None",
/* pixels */
"LLLLLLLLLLLLLLGAVBMMmNmNmnlhLLLLLLLLLLLLLLLLLL",
"LLLLLLLLLLLLHHFSVNmmmmmmmnlhhhhgaLLLLLLLLLLLLL",
"LLLLLLLLLLKHHHDCMnccccxclkhdghgspaauLLLLLLLLLL",
"LLLLLLLLKKKHFZMnkfsaaaaaapiiasappsat08LLLLLLLL",
"LLLLLLLKKHHDBvhprq9999999990wrrruiue9764LLLLLL",
"LLLLLLJJHDCnjiw96533333333566899qeq0775,>LLLLL",
"LLLLHHHHANzsr8531<<,<,,,,<<111356777772>;;LLLL",
"LLLADFDZmhy9631<<<,,<<,<,,<<<<<<222362,;;*LLLL",
"LLLCSACvfw751<<,,,,,,,<,,,,,,,,,<<<21<,;;&%LLL",
"LLLBBNvsw72<<,,,,<,,,,,,,,,<,<<,,,<<1,,;&&#LLL",
"LLnnnxsw71<<,,,,,<<,<,,,,,,,,<,,,,,,,,,;&$#OLL",
"LLvvlfr72<,<<,,,,,,,,,<,,<,,,,,,,<,,,,,;&#OOLL",
"LLnvji931<<,,,,<,<,,,<,,<,,,,<,,,,,,,,,;*#@OLL",
"LBNnjt82<,,,,,,,,,,,,,,,,,,<,,,,<,,<,,,:;##+@L",
"LMMvfw61,,<,<,,,<,,<,,,,,,,,<,,<,,,,,,,:;%+OoL",
"zccki031,,,,,,,<,,,,<,,,<,,,,,,,,,<,,,,,;&+oXL",
"sdspw62<<,,,,<,,,,<,,,,,,,<,,,<,,,,<,,,:;%OX L",
"uuye83<,,,,<,,,<,,,,,<<,<,,,,,,,<,,,,,,,;$OX L",
"trr062<,,,,,,,,,,,,,,,<,,,,,,,,,,,,,<,,,;%O  L",
"rr0961,,<,,,<,,,,,,<,,,,,,<,,,,<,,,,,,,,*$oX L",
"098711,,,,,<,,,,<,,,,<,,,,<,<,,<,,,,,,,,*$o  L",
"321,,,,,,,,,,,,,,,,,,,,<,,,,,,,,,,,,,,,:*#o  L",
">>>:,,,,,,,,,,,,,,,<,,,,<,,,,,,,,,,,,,:;%OXX.L",
"L;;;;:,,,,,<,,,,<,,,,<,,,,<,,,<,,,,,,,,*$oX LL",
"L>*;;;,,,,,,,,,,,<,,,,,,,,,,,<,,,,,,,,;&+X XLL",
"LL**;;;>,,,,,,,,,,,<,,,,,<<,,,,,,,,,,;*#oX .LL",
"LLL;*;;,,,,,,,,,,,,,,,,,,,<,,,,<,,,,,;%OXXXLLL",
"LLL=*****;;,,:,,<,,,,<,,,,,,,,,,,,:,&&#oX .LLL",
"LLLL&&&#$%&*;;;:>,,:,,,,:,,,,>,;;;*&%+oX  LLLL",
"LLLLL$#+OO+$$%&***;;::;;;******&&%##OoX  LLLLL",
"LLLLL@ooXXoooOO+#$$$&&&%$#$#####oOoXXXX .LLLLL",
"LLLLLLL.     XXooooO+++OOoooooooXXX  XX.LLLLLL",
"LLLLLLLLL...XX     XXoXXX     X     .LLLLLLLLL",
"LLLLLLLLLLLLLL.            X     .LLLLLLLLLLLL",
"LLLLLLLLLLLLLLLLLLLL... LLLLLLLLLLLLLLLLLLLLLL"
};
